<svg xmlns="http://www.w3.org/2000/svg" xmlns:xlink="http://www.w3.org/1999/xlink" width="598.109" height="390.656" viewBox="0 0 598.109 390.656">
  <defs>
    <clipPath id="clip-path">
      <path id="path30" d="M828.435-1562.64c-14.326,41.461-31.439,82.4-90.958,98.212l-257.251-2.731c-57.968-27.379-89.647-81.44-94.917-139.768a198.822,198.822,0,0,1,3.439-58.416q1.583-7.662,3.78-15.232c13.289-45.82,41.418-89.017,83.262-113.383,26.886-15.658,61.349-10.489,89.9-2.452,25.744,7.243,50.893,17.391,77.472,20.45,12.814,1.468,25.762,1.26,38.7,1.049,8.439-.136,16.874-.272,25.258.058a155.133,155.133,0,0,1,22.646,2.384c32.089,6.028,60.531,25.7,80.054,52.007a143.089,143.089,0,0,1,16.789,29.184c17.187,40.364,16.159,87.178,1.829,128.639" transform="translate(-384.518 1804.098)"/>
    </clipPath>
    <clipPath id="clip-path-2">
      <path id="path102" d="M1032.082-1030.556q-.439,0-.895-.021a10.239,10.239,0,0,1-1.783-.235l14.5-11.932c.251.2.5.4.75.589-.857,6.807-4.344,11.6-12.569,11.6" transform="translate(-1029.404 1042.744)" fill="#9f3030"/>
    </clipPath>
  </defs>
  <g id="g10" transform="translate(-46.358 2461.904)">
    <g id="g12" transform="translate(0 -2666.66)">
      <path id="path14" d="M0-2276H598.109V-2666.66H0Z" transform="translate(46.358 2871.417)" fill="rgba(255,255,255,0)"/>
      <path id="path16" d="M2276.83-678.175a9.2,9.2,0,0,1-1.025-.065l.633-10.993c.129-.007.259-.017.392-.017,4.022,0,7.291,2.486,7.291,5.537s-3.269,5.537-7.291,5.537Zm0-14.987c-.054,0-.109,0-.164.007l.48-8.323h-42.326l2.04,35.3a12.5,12.5,0,0,0,12.484,11.783h13.274a12.508,12.508,0,0,0,12.488-11.783l.47-8.146c.412.037.831.061,1.253.061,6.181,0,11.207-4.24,11.207-9.45s-5.027-9.45-11.207-9.45" transform="translate(-1664.036 1203.396)" fill="#ee6f57"/>
      <path id="path18" d="M2292.516-829.331a16.628,16.628,0,0,1-10.737-6.378,17.081,17.081,0,0,1-2.983-5.867c-.17-.531-.266-1.08-.388-1.624-.072-.552-.181-1.1-.208-1.652a17.761,17.761,0,0,1,.017-3.324,18.39,18.39,0,0,1,1.8-6.348,16.962,16.962,0,0,1,1.74-2.823,17.861,17.861,0,0,1,2.2-2.4c.746-.695,1.464-1.291,2.077-1.893a10.356,10.356,0,0,0,.851-.892,6,6,0,0,0,.633-.9,4.279,4.279,0,0,0,.593-2.033,2.607,2.607,0,0,0-.589-1.866l1.066-1.556a4.148,4.148,0,0,1,1.458,1.284,5.372,5.372,0,0,1,.769,1.757,6.987,6.987,0,0,1-.17,3.678,16.5,16.5,0,0,1-3.644,5.381,16.469,16.469,0,0,0-1.546,2.053c-.238.344-.429.719-.64,1.076-.177.381-.381.742-.538,1.134a16.524,16.524,0,0,0-1.281,4.836,15.351,15.351,0,0,0,2.149,9.624,18.147,18.147,0,0,0,7.863,6.92l-.5,1.818" transform="translate(-1696.282 1328.051)" fill="#e5ecff"/>
      <path id="path20" d="M2339.421-822.379a20.407,20.407,0,0,0,4.131-4.921,16.413,16.413,0,0,0,2.108-5.615,17.352,17.352,0,0,0-.092-5.983,22.329,22.329,0,0,0-2.128-6.058l1.372-1.294a12.66,12.66,0,0,1,4.826,6.143,14.837,14.837,0,0,1,.759,8.033,15.192,15.192,0,0,1-3.528,7.25,13.146,13.146,0,0,1-6.6,4.131l-.845-1.686" transform="translate(-1741.92 1311.193)" fill="#e5ecff"/>
      <path id="path22" d="M678.737-1435.458l.124-.64c-26.935-5.217-49.885-15.661-68.308-30.866s-32.328-35.167-41.154-59.462c-6.888-18.961-10.28-40.146-10.279-61.689,0-33.128,8.02-67.09,23.622-95.106s38.764-50.069,69.063-59.5a72.817,72.817,0,0,1,21.7-2.993c13.291,0,27.278,2.653,41.146,5.316s27.619,5.336,40.477,5.34c.225,0,.449,0,.674,0,21.832-.163,42.571-6.535,63.156-12.842s41.015-12.545,62.22-12.542q4.051,0,8.149.317c29.671,2.336,55.365,17.17,75.058,38.4s33.356,48.837,38.93,76.632a165.087,165.087,0,0,1,3.228,32.47,162.441,162.441,0,0,1-2.019,25.578,177.038,177.038,0,0,1-20.415,59.438c-4.407,7.747-11.749,16.8-20.15,24.413a89.573,89.573,0,0,1-13.155,10,46.986,46.986,0,0,1-13.295,5.813l.15.633-.126-.637L678.61-1436.1l.126.64.124-.64-.124.64.127.637,258.931-51.3.014,0a48.2,48.2,0,0,0,13.669-5.973,99.278,99.278,0,0,0,19.493-16.145,100.739,100.739,0,0,0,14.265-18.73,178.321,178.321,0,0,0,20.569-59.877,163.832,163.832,0,0,0,2.033-25.782,166.621,166.621,0,0,0-3.249-32.726c-5.626-28.03-19.387-55.842-39.254-77.258s-45.86-36.445-75.91-38.811q-4.153-.327-8.251-.32c-21.464,0-42.016,6.3-62.6,12.6s-41.205,12.627-62.784,12.784c-.221,0-.442,0-.664,0-12.678,0-26.362-2.653-40.231-5.316s-27.928-5.34-41.391-5.34a74.012,74.012,0,0,0-22.083,3.055c-30.68,9.542-54.091,31.868-69.813,60.105s-23.785,62.4-23.786,95.736c0,21.679,3.411,43.007,10.358,62.131,8.9,24.492,22.94,44.669,41.549,60.024s41.772,25.888,68.888,31.139l.125.024.125-.024-.127-.637" transform="translate(-415.349 1992.863)" fill="#fbc343"/>
      <path id="path24" d="M609.229-1374.47l.153.62c53.635-13.247,94.616-53.223,108.765-99.032a147.134,147.134,0,0,0,6.263-43.3c0-32.447-9.624-66.218-27.717-93.679s-44.675-48.612-78.569-55.709a123.516,123.516,0,0,0-25.346-2.411,231.906,231.906,0,0,0-26.562,1.74c-25.252,2.918-51.062,6.508-76.519,6.508q-4.057,0-8.1-.126c-26.245-.831-51.838-8.326-78.446-8.333q-1.538,0-3.079.034c-39.2.879-71.694,17.422-94.367,42.329a137.993,137.993,0,0,0-35.543,92.545,136.824,136.824,0,0,0,4.478,34.749,155.435,155.435,0,0,0,25.183,53.09c5.116,6.886,13.238,14.684,22.348,21.117s19.2,11.483,28.3,12.814l258.788,37.7.123-.031-.153-.62.092-.63-258.665-37.681c-8.781-1.274-18.748-6.239-27.75-12.6s-17.054-14.088-22.058-20.831a154.19,154.19,0,0,1-24.973-52.654,135.534,135.534,0,0,1-4.436-34.425,136.725,136.725,0,0,1,35.211-91.687c22.459-24.665,54.6-41.035,93.452-41.91q1.527-.036,3.05-.034c26.365-.007,51.944,7.478,78.405,8.33q4.065.133,8.141.13c25.576,0,51.433-3.6,76.665-6.518a231.506,231.506,0,0,1,26.416-1.73,122.076,122.076,0,0,1,25.084,2.384c33.519,7.019,59.819,27.928,77.766,55.161s27.505,60.783,27.505,92.978a145.871,145.871,0,0,1-6.208,42.928c-14,45.346-54.65,85.036-107.849,98.167l.153.62.092-.63-.092.63" transform="translate(-201.16 1923.209)" fill="#fbc343"/>
      <g id="g26" transform="translate(98.208 220.303)">
        <g id="g28" clip-path="url(#clip-path)">
          <path id="path34" d="M828.435-1562.64c-14.326,41.461-31.439,82.4-90.958,98.212l-257.251-2.731c-57.968-27.379-89.647-81.44-94.917-139.768a198.822,198.822,0,0,1,3.439-58.416q1.583-7.662,3.78-15.232c13.289-45.82,41.418-89.017,83.262-113.383,26.886-15.658,61.349-10.489,89.9-2.452,25.744,7.243,50.893,17.391,77.472,20.45,12.814,1.468,25.762,1.26,38.7,1.049,8.439-.136,16.874-.272,25.258.058a155.133,155.133,0,0,1,22.646,2.384c32.089,6.028,60.531,25.7,80.054,52.007a143.089,143.089,0,0,1,16.789,29.184c17.187,40.364,16.159,87.178,1.829,128.639" transform="translate(-384.518 1804.098)" fill="#ffeec7"/>
          <path id="path36" d="M109.67-1503.613c-1.172-14.241,6.8-29.6,20.812-40.078,12.76-9.545,28.5-14.412,43.615-18.246,83.97-21.314,172.665-18.771,258.439-16.312,76.652,2.2,155.919,4.471,231.8-10.227,10.8-2.091,22.159-4.638,31.823-10.632,10.38-6.439,16.952-16.526,17.15-26.327.375-18.375-19.533-30.969-31.432-36.839-45.186-22.3-100.786-30.686-174.969-26.406a838.336,838.336,0,0,0-166.445,26.722c-12.274,3.259-24.742,6.865-36.8,10.349-43.167,12.477-87.8,25.38-133.323,25.38h-.684c-12.358-.034-28.223-2.537-33.63-14.262-3.816-8.275-.607-17.7,2.758-24.151,11.245-21.56,32.517-34.125,48.383-40.872,17.823-7.573,37.19-11.694,55.92-15.675q3.335-.71,6.665-1.423a1262.883,1262.883,0,0,0,124.3-33.512c19.285-6.273,29.183-14.432,30.259-24.941.954-9.324-5.888-17.487-13.092-21.44-8.631-4.74-18.829-5.357-26.749-5.36h-.112a147.193,147.193,0,0,0-68.6,16.966c-7.795,4.12-15.316,9.028-22.589,13.771-9.629,6.28-19.587,12.774-30.32,17.552-20.755,9.235-45.326,12.637-73.032,10.111-21.39-1.951-37.7-7.2-49.848-16.056-7.331-5.343-13.451-12.232-19.369-18.9-7.192-8.1-14.629-16.472-24.185-21.91l.632-1.11c9.739,5.544,17.247,14,24.508,22.176,5.873,6.613,11.946,13.451,19.166,18.713,11.96,8.714,28.057,13.887,49.211,15.815,27.482,2.506,51.842-.862,72.4-10.005,10.64-4.734,20.554-11.2,30.141-17.453,7.3-4.761,14.843-9.682,22.69-13.833a148.491,148.491,0,0,1,69.2-17.112h.113c8.072,0,18.477.637,27.362,5.517,7.574,4.158,14.759,12.787,13.748,22.69-1.134,11.064-11.316,19.578-31.134,26.027a1263.217,1263.217,0,0,1-124.429,33.543q-3.33.72-6.668,1.427c-18.67,3.967-37.976,8.074-55.686,15.6-15.674,6.664-36.681,19.063-47.75,40.286-3.232,6.2-6.329,15.225-2.73,23.027,5.125,11.115,20.488,13.485,32.474,13.519h.68c45.346,0,89.885-12.876,132.969-25.329,12.064-3.487,24.538-7.094,36.826-10.356a839.357,839.357,0,0,1,166.7-26.763c74.415-4.3,130.216,4.134,175.609,26.531,12.171,6.007,32.532,18.931,32.144,38.014-.208,10.227-7.012,20.719-17.756,27.386-9.845,6.109-21.331,8.684-32.249,10.8-76.022,14.725-155.361,12.45-232.084,10.25-85.684-2.455-174.29-5-258.087,16.274-14.984,3.8-30.584,8.619-43.165,18.028-13.66,10.219-21.441,25.146-20.3,38.954l-1.273.1" transform="translate(-155.109 1807.854)" fill="#fff"/>
        </g>
      </g>
      <path id="path38" d="M1631.88-610.932c17.371,4.451,41.233,8.445,33.628,23.293l-43.272-.041,9.644-23.252" transform="translate(-1207.908 1135.976)" fill="#e28b6d"/>
      <path id="path40" d="M759.141-874.253H717.286a25.878,25.878,0,0,1-25.879-25.878v-85.482a25.878,25.878,0,0,1,25.879-25.878h41.854a25.878,25.878,0,0,1,25.878,25.878v85.482a25.878,25.878,0,0,1-25.878,25.878" transform="translate(-514.818 1434.23)" fill="#102048"/>
      <path id="path42" d="M745.781-905.973q-1.217-9.389-1.783-18.852a166.231,166.231,0,0,1-.023-20.487,63.127,63.127,0,0,1,1.469-10.179,22.174,22.174,0,0,1,1.771-4.873,9.172,9.172,0,0,1,1.526-2.149,4.711,4.711,0,0,1,2.311-1.338l.112.484a5.7,5.7,0,0,0-3.342,3.313,21.453,21.453,0,0,0-1.539,4.764,64.158,64.158,0,0,0-1.232,10.046,182.583,182.583,0,0,0,.21,20.347q.529,9.292,1.618,18.546-.555.174-1.1.378" transform="translate(-553.73 1398.757)" fill="#cfd2da"/>
      <path id="path44" d="M835.719-926.544a569.522,569.522,0,0,0,19.322,112.8H900.6l-64.881-112.8" transform="translate(-622.272 1370.979)" fill="#7b1c1c"/>
      <path id="path46" d="M885.62-1447.631c-11.448-6.229-14.588-21.662-6.228-31.68q1.207-1.451,2.688-2.929c12.773-12.723,4.815-25.452,3.029-54.725-1.784-29.246,30.8-37.231,30.859-37.248,1.536-.375,4.51-4.761,5.767-5.85,14.705-12.753,35.8-11.813,51.918-2.1,7.669,4.618,15.387,11.728,19.538,19.887,6.583,12.941,7.771,29.988,18.859,40.065,15.8,14.364,33.332,26.559,32.624,49.726-.249,8.231-2.309,16.925-7.325,23.521-4.373,5.748-11.03,9.607-17.037,13.325a146.512,146.512,0,0,1-30.986,14.98c-10.559,3.477-21.235,6.6-31.94,9.579q-1.517.424-3.037.841l-68.729-37.388" transform="translate(-651.273 1864.646)" fill="#c8482d"/>
      <path id="path48" d="M1209.252-1090.254c38.266-13.138,59.049,29.692,87.627,113.26l27.5,7.42-3.194,29.76-10.032,2.091-81.919.344-19.977-152.875" transform="translate(-900.402 1494.618)" fill="#b53232"/>
      <path id="path50" d="M789.431-503.438H207.571v-20.054h581.86v20.054" transform="translate(-154.557 1070.869)" fill="#e5ecff"/>
      <path id="path52" d="M979.165-1107.811l85.572,21.417,35.952,107.73L980.585-975l-7.945-79.656,6.525-53.151" transform="translate(-724.223 1505.949)" fill="#b53232"/>
      <path id="path54" d="M1386.728-599.219a40.054,40.054,0,0,1-8.251-1.161h0l12.76-.392c-.572,1.178-2.4,1.553-4.509,1.553" transform="translate(-1026.406 1128.411)" fill="#5874be"/>
      <path id="path56" d="M1104.113-842.949l-16.1-1.618c1.214-4.393,4.22-7.727,10.067-7.727.238,0,.48.007.725.017l-64.721-9.017a8.862,8.862,0,0,1-6.179-3.886,18.553,18.553,0,0,1-2.578-5.234L1010-926.544h0c21.024,21.164,16.375,52.181,34.336,55.259,11.89,2.036,45.681,6.865,61.8,13.584,3.262,1.359,12.263,8.05,10.867,13.989a1.664,1.664,0,0,1-.133.371l-12.763.388" transform="translate(-752.043 1370.979)" fill="#9f3030"/>
      <path id="path58" d="M1299.2-632.474c.611-.964,13.485-3.518,14.94-3.317,4.788.654,7.4,4.4,8.558,7.274l-19.049,10.046-4.449-14" transform="translate(-967.375 1154.494)" fill="#652323"/>
      <path id="path60" d="M1353.726-926.918l2.21,5.036c.729,1.686,1.406,3.388,2.115,5.081,1.355,3.405,2.667,6.835,3.892,10.291,2.489,6.9,4.693,13.9,6.76,20.94q3.044,10.569,5.469,21.311c.78,3.582,1.532,7.175,2.2,10.781s1.216,7.236,1.693,10.873l-.473.068q-.9-5.414-2.057-10.778c-.736-3.582-1.556-7.148-2.4-10.707q-2.544-10.671-5.6-21.216c-2-7.036-4.223-14.006-6.569-20.933-1.158-3.47-2.418-6.906-3.688-10.332-.65-1.709-1.277-3.429-1.948-5.132l-2.043-5.094.436-.191" transform="translate(-1007.652 1371.257)" fill="#652323"/>
      <path id="path62" d="M1361.98-607.413s-3.6,4.257-14.967.112c-5.353.62-15.314.143-34.258-2.949,0,0,6.879,4.812,22.435,5.639,0,0-.664,4.577-8.864,4.376-9.865-.249-11.006-.845-20-.47-1.839.075-5.84-.01-10.175-.143-7.56-.249-16.149-.65-16.149-.65l-7.492-13.39,14.95-7.158a38.848,38.848,0,0,1,9.11-2.734c9.654-1.369,15.75-2.459,22.67-1.267,7.689,1.318,31.176,9.109,42.738,18.634" transform="translate(-947.506 1147.611)" fill="#f9b384"/>
      <path id="path64" d="M1296.573-595.9l-.419.232c-7.56-.249-16.149-.65-16.149-.65l-7.492-13.39,14.949-7.158a38.859,38.859,0,0,1,9.111-2.735c-5.5,2.241-10,8.115,0,23.7" transform="translate(-947.507 1142.429)" fill="#e28b6d"/>
      <path id="path66" d="M895.445-1092.1c-19.45-3.984-66.851-7.3-80.1,17.238-10.9,20.2,16.428,87.859,28.269,111.653,4.873,9.794,19.024,14.64,24.526,14.677l78.15-.449c-5.258-1.219-12-29.433,5.7-28.633l-64.721-9.018a8.862,8.862,0,0,1-6.179-3.886,18.555,18.555,0,0,1-2.577-5.234l-18.37-67.291,35.3-29.058" transform="translate(-605.23 1496.318)" fill="#b53232"/>
      <path id="path68" d="M1591.043-543l-76.247-.048v-7.192h76.69l-.443,7.24" transform="translate(-1127.909 1090.784)" fill="#fff"/>
      <path id="path70" d="M1797.412-807.975,1705.436-808l33.55-98.1,91.976.027-33.55,98.1" transform="translate(-1269.859 1355.76)" fill="#102048"/>
      <path id="path72" d="M1931.865-735.555c-2.82,4.5-8.088,6.351-12.106,4.373a5.6,5.6,0,0,1-.7-.381c-4.1-2.554-4.989-8.5-2.009-13.257s8.708-6.555,12.8-3.991a7.784,7.784,0,0,1,2.809,3.109,10.506,10.506,0,0,1-.8,10.148" transform="translate(-1426.116 1239.512)" fill="#fff"/>
      <path id="path74" d="M1937.611-729.182c-2.82,4.5-9.746,7.775-14.6,2.421,10.533.953,14.078-5.946,13.88-14.664,3.6,3.984,2.8,8.922.722,12.242" transform="translate(-1431.862 1233.14)" fill="#708cd5"/>
      <path id="path76" d="M1455.388-625.532a76.139,76.139,0,0,1,11.446,2.833c3.749,1.175,7.434,2.547,11.057,4.069a102.15,102.15,0,0,1,10.635,5.094,54.945,54.945,0,0,1,9.719,6.695l-.317.385a58.257,58.257,0,0,0-4.842-3.245c-1.655-1.022-3.361-1.962-5.088-2.854-3.453-1.795-6.984-3.446-10.6-4.907-3.569-1.573-7.233-2.908-10.907-4.216q-2.758-.971-5.558-1.825c-1.859-.582-3.736-1.117-5.633-1.536l.085-.494" transform="translate(-1083.611 1146.847)" fill="#6f3428"/>
      <path id="path78" d="M1449.2-554.452l4.114,1.175c1.369.368,2.748.684,4.134.967s2.779.5,4.182.7,2.809.324,4.223.467l.47.044.037.409a3.883,3.883,0,0,1-.153,1.519,2.8,2.8,0,0,1-.824,1.3,3.127,3.127,0,0,1-1.338.65,6.337,6.337,0,0,1-.7.1l-.691-.017v-.5l.616-.092a6.007,6.007,0,0,0,.579-.163,2.306,2.306,0,0,0,.93-.6,1.98,1.98,0,0,0,.484-.936,2.879,2.879,0,0,0,.027-1.076l.507.453a41.745,41.745,0,0,1-8.609-1.052,37.439,37.439,0,0,1-4.165-1.226,43.2,43.2,0,0,1-3.995-1.648l.174-.467" transform="translate(-1078.935 1093.921)" fill="#6f3428"/>
      <path id="path80" d="M1435.834-593.265c3.307.422,6.634.746,9.961,1.086,3.324.368,6.654.688,9.981,1.216,3.31.528,6.6,1.131,9.893,1.727s6.579,1.206,9.859,1.87l.776.157-.33.722a9.634,9.634,0,0,1-.848,1.767,5.075,5.075,0,0,1-.7.824,8.99,8.99,0,0,1-.862.609,11.5,11.5,0,0,1-3.76,1.189,38.783,38.783,0,0,1-7.577.317c-1.257-.048-2.51-.1-3.76-.214-1.25-.089-2.5-.181-3.743-.341-2.489-.259-4.965-.613-7.437-.971l.061-.5c2.489.2,4.965.484,7.451.63,1.243.1,2.483.17,3.726.225,1.243.082,2.483.1,3.722.116a44.333,44.333,0,0,0,7.359-.429,10.489,10.489,0,0,0,3.337-1.073c.242-.136.439-.317.664-.47a4,4,0,0,0,.5-.6,9.094,9.094,0,0,0,.739-1.614l.446.879c-6.566-1.24-13.125-2.561-19.7-3.7-3.269-.6-6.589-.994-9.9-1.44s-6.63-.882-9.93-1.488l.078-.494" transform="translate(-1069.056 1122.821)" fill="#6f3428"/>
      <path id="path82" d="M207.571-525.123h581.86v-1.7H207.571Z" transform="translate(-154.557 1073.351)" fill="#102048"/>
      <path id="path84" d="M1097.947-1004.8a27.805,27.805,0,0,0,9.261,4.1,25.376,25.376,0,0,0,10.024.385,20.8,20.8,0,0,0,9.2-3.811,21.137,21.137,0,0,0,6.373-7.747l.459.2c-.354.793-.719,1.59-1.094,2.384-.426.763-.928,1.488-1.4,2.237-.519.712-1.136,1.345-1.7,2.026-.61.637-1.307,1.188-1.96,1.788a21.058,21.058,0,0,1-9.666,4.175,25.142,25.142,0,0,1-10.5-.589,25.041,25.041,0,0,1-9.3-4.747l.3-.4" transform="translate(-817.302 1434.518)" fill="#652323"/>
      <path id="path86" d="M1009.563-926.8l4.268,14.5,4.2,14.524,4.155,14.534,2.066,7.271,1.033,3.637a27.46,27.46,0,0,0,1.124,3.508,10.459,10.459,0,0,0,4.974,4.941,29.027,29.027,0,0,0,7,2.333c2.441.524,4.91.879,7.415,1.2l7.49,1.015,14.974,2.07,14.964,2.156-.062.473-15.014-1.781-15-1.863-7.5-.95c-2.493-.31-5.018-.661-7.508-1.185a30.3,30.3,0,0,1-7.308-2.4,11.5,11.5,0,0,1-5.527-5.51,5.983,5.983,0,0,1-.365-.93c-.1-.313-.222-.633-.3-.933l-.508-1.818-1.018-3.64-2.034-7.281-4.046-14.565-4-14.578-3.932-14.6.46-.129" transform="translate(-751.373 1371.168)" fill="#652323"/>
      <path id="path88" d="M1081.713-1226.749l3.832,32.988c1.141,9.821-9.209,18.049-19.7,15.328-6-1.556-12.248-5.707-18.716-11.946a7.612,7.612,0,0,1-2.319-4.713l-4.085-39.758,40.987,8.1" transform="translate(-774.919 1600.542)" fill="#f9b384"/>
      <path id="path90" d="M1114.43-1190.127l2.087,17.963c-8.477,1.332-20.426-3.436-32.551-19.526l30.465,1.563" transform="translate(-807.115 1568.406)" fill="#3c1c16"/>
      <path id="path92" d="M1094.7-1427.734a88.8,88.8,0,0,1-3.113,17.848c-2.836,9.436-7.783,17.051-16.259,18.461-24.954,4.148-43.038-20.661-43.038-20.661l-2.9-33.758,15.061-26.055,33.723-.977,16.446,19.455a161.409,161.409,0,0,1,.081,25.687" transform="translate(-766.475 1777.775)" fill="#f9b384"/>
      <path id="path94" d="M1002.253-1457.915c13.4-1,16.48-12.321,17.4-26.995,0,0,36.283-8.987,49.165,16.806l9.768,1.059L1049-1506.316l-45.974,5.486-8.994,29.842,8.221,13.073" transform="translate(-740.151 1802.674)" fill="#c8482d"/>
      <path id="path96" d="M1008.882-1341.008a7.311,7.311,0,0,0-6.259-2.34c-8.9,1.08-10.445,12.862-8.41,17.878,3.045,7.5,11.29,9.787,11.29,9.787l7.084-7.492c.567-7.8-.32-14.105-3.7-17.834" transform="translate(-739.693 1681.368)" fill="#f9b384"/>
      <g id="g98" transform="translate(262.915 414.757)">
        <g id="g100" clip-path="url(#clip-path-2)">
          <path id="path106" d="M1029.4-1030.556h15.247v-12.188H1029.4Z" transform="translate(-1029.404 1042.744)" fill="#9f3030"/>
        </g>
      </g>
      <path id="path108" d="M883.38-1160.666a44.531,44.531,0,0,1,6.189-2.394,54.863,54.863,0,0,0-6.189,2.394m6.26-2.415,35.058-28.677,2.565,24.972-.575-.031-13.985-3.5-.426,3.473a90.544,90.544,0,0,0-22.636,3.763" transform="translate(-657.76 1568.455)" fill="#673025"/>
      <path id="path110" d="M1010.931-1104.31c-2.471-.126-5.017-.2-7.6-.2-2.251,0-4.528.055-6.813.17l.426-3.474,13.985,3.5" transform="translate(-742.003 1505.949)" fill="#687bb9"/>
      <path id="path112" d="M920.517-1069.63c-10.117-2.265-19.462-19.421-33.124-19.421a17.034,17.034,0,0,0-4.225.545c.018-.007.036-.017.055-.024a54.842,54.842,0,0,1,6.189-2.394l.07-.021h0a90.533,90.533,0,0,1,22.636-3.763c2.285-.116,4.563-.17,6.813-.17,2.581,0,5.127.072,7.6.2l.575.031.389,3.78a7.612,7.612,0,0,0,2.319,4.713q2.625,2.528,5.2,4.594l-14.5,11.933" transform="translate(-657.602 1496.319)" fill="#9f3030"/>
      <path id="path114" d="M1056.378-1158.818c-.25-.194-.5-.388-.75-.589q-2.576-2.058-5.2-4.594a7.611,7.611,0,0,1-2.319-4.713l-.389-3.78-2.565-24.972,2.4-1.958c3.125,8.885,10.4,28.129,8.827,40.606" transform="translate(-778.216 1574.164)" fill="#dd9c74"/>
      <path id="path116" d="M941.815-1234.877c4.74,9,18,53.547-4.587,50.975-10.887-1.243-13.56-14.354-29.344-11.286l33.931-39.69" transform="translate(-676.006 1600.562)" fill="#c8482d"/>
      <path id="path118" d="M1019.259-1321.249a4.915,4.915,0,0,0-.812-2.813,5.03,5.03,0,0,0-2.091-1.842,3.389,3.389,0,0,0-2.578-.136,6.569,6.569,0,0,0-2.379,1.764l-.548-.327a5.176,5.176,0,0,1,2.344-2.745,3.084,3.084,0,0,1,.926-.347,3.168,3.168,0,0,1,.993-.119l.5.017.486.1a3.391,3.391,0,0,1,.93.32,5.525,5.525,0,0,1,2.638,2.649,4.622,4.622,0,0,1,.211,3.613l-.623-.136" transform="translate(-752.674 1669.767)" fill="#3c1c16"/>
      <path id="path120" d="M1230.7-1334.187c.08,2.3,1.417,4.11,2.985,4.056s2.775-1.958,2.694-4.253-1.417-4.11-2.986-4.056-2.775,1.961-2.694,4.253" transform="translate(-916.366 1677.676)" fill="#3c1c16"/>
      <path id="path122" d="M1133.825-1330.787c.08,2.3,1.417,4.11,2.985,4.052s2.774-1.958,2.694-4.253-1.417-4.107-2.986-4.052-2.775,1.958-2.694,4.253" transform="translate(-844.237 1675.144)" fill="#3c1c16"/>
      <path id="path124" d="M1176.66-1239.007a12.2,12.2,0,0,1-4.078,3.474,7.992,7.992,0,0,1-5.6.4,13.857,13.857,0,0,1-4.749-2.595,22.2,22.2,0,0,1-3.689-3.719l.515-.535c1.413.977,2.738,2.023,4.142,2.9a17.063,17.063,0,0,0,4.3,2.135,7.2,7.2,0,0,0,4.451-.078,17.851,17.851,0,0,0,4.188-2.513l.517.531" transform="translate(-862.645 1605.854)" fill="#3c1c16"/>
      <path id="path126" d="M1224.737-1364.147a20.9,20.9,0,0,0-3.182-1.951,6.028,6.028,0,0,0-3.106-.569,10.745,10.745,0,0,0-3.218.95c-1.112.484-2.2,1.134-3.451,1.686l-.341-.358a10.086,10.086,0,0,1,2.711-3.126,7.893,7.893,0,0,1,4.106-1.621,6.239,6.239,0,0,1,4.349,1.328,7.8,7.8,0,0,1,2.519,3.358l-.388.3" transform="translate(-902.031 1700.549)" fill="#3c1c16"/>
      <path id="path128" d="M1122.532-1360.088a13.065,13.065,0,0,0-3.575-1.876,8.928,8.928,0,0,0-3.669-.371,13.521,13.521,0,0,0-3.689.988c-1.234.511-2.444,1.175-3.791,1.815l-.341-.358a10.577,10.577,0,0,1,3.113-3.32,9.411,9.411,0,0,1,4.472-1.628,7.947,7.947,0,0,1,4.742,1.022,7.316,7.316,0,0,1,3.125,3.426l-.389.3" transform="translate(-824.615 1697.359)" fill="#3c1c16"/>
      <path id="path130" d="M1081.676-1274.88a9.073,9.073,0,0,1-9.062-8.755,9.075,9.075,0,0,1,8.75-9.385c.109,0,.216,0,.324,0a9.073,9.073,0,0,1,9.061,8.755,9.075,9.075,0,0,1-8.75,9.385c-.108,0-.216,0-.323,0" transform="translate(-798.659 1643.858)" fill="#fb9d7e"/>
      <path id="path132" d="M1252.867-1278.392a9.089,9.089,0,0,1-6.87-8.493,9.074,9.074,0,0,1,8.745-9.389c.111,0,.223,0,.334,0,.3,0,.607.014.905.037a88.8,88.8,0,0,1-3.113,17.848h0" transform="translate(-927.758 1646.28)" fill="#fb9d7e"/>
      <path id="path134" d="M1191.564-1312.452a1.748,1.748,0,0,1-1.719-1.417,57.064,57.064,0,0,1-.353-15.961.378.378,0,0,1,.385-.354.385.385,0,0,1,.374.283c2.029,6.62,8.618,11.456,7.564,13.4-.742,1.365-3.53,2.915-5.485,3.872a1.73,1.73,0,0,1-.767.177" transform="translate(-885.404 1671.527)" fill="#fb9d7e"/>
      <path id="path136" d="M1193.991-1331.423a17.017,17.017,0,0,0,2.413,5.353c1.079,1.655,2.343,3.194,3.621,4.812.323.405.633.828.939,1.277a7.137,7.137,0,0,1,.845,1.553,2.262,2.262,0,0,1,.119,1.229,2.47,2.47,0,0,1-.579,1.056,6.907,6.907,0,0,1-1.322,1.13,21.451,21.451,0,0,1-5.743,2.578l-.283-.684c.871-.518,1.763-1,2.6-1.556a23.549,23.549,0,0,0,2.429-1.672,6.883,6.883,0,0,0,.95-.919,1.542,1.542,0,0,0,.163-.266,1.179,1.179,0,0,0-.079-.272,12.241,12.241,0,0,0-1.537-2.3,37.029,37.029,0,0,1-3.522-5.146,13.388,13.388,0,0,1-1.755-6.089l.736-.085" transform="translate(-888.492 1672.45)" fill="#3c1c16"/>
      <path id="path138" d="M934.4-1226.031a8.536,8.536,0,0,0-.677,4.052,13.613,13.613,0,0,0,.974,4.052c1.1,2.585,2.559,5.115,3.843,7.727a30.4,30.4,0,0,1,2.983,8.336,18.662,18.662,0,0,1,.217,4.522,18.941,18.941,0,0,1-.373,2.271,10.873,10.873,0,0,1-.839,2.186,8.771,8.771,0,0,1-3.149,3.5,7.354,7.354,0,0,1-4.645,1.09,17.154,17.154,0,0,1-4.346-1.338c-1.352-.562-2.673-1.154-3.986-1.743a37.07,37.07,0,0,0-8.039-2.793,9.37,9.37,0,0,0-4.08,0,5.513,5.513,0,0,0-1.791.875,6.117,6.117,0,0,0-1.369,1.5l-.55-.32a6.8,6.8,0,0,1,1.42-1.795,6.362,6.362,0,0,1,2.027-1.131,10.3,10.3,0,0,1,4.523-.259,38.443,38.443,0,0,1,8.415,2.609l4,1.662a16.015,16.015,0,0,0,3.931,1.185,5.735,5.735,0,0,0,3.637-.9,7.621,7.621,0,0,0,2.57-2.891,9.273,9.273,0,0,0,.731-1.849,17.706,17.706,0,0,0,.348-2.006,17.149,17.149,0,0,0-.159-4.127,32.205,32.205,0,0,0-2.718-8c-1.185-2.622-2.575-5.149-3.636-7.935a14.619,14.619,0,0,1-.828-4.4,8.838,8.838,0,0,1,1-4.373l.569.286" transform="translate(-676.518 1594.188)" fill="#3c1c16"/>
      <path id="path140" d="M1011.486-1536.577a47.574,47.574,0,0,1,7.583-2.568,74.894,74.894,0,0,1,7.834-1.614,67.148,67.148,0,0,1,7.972-.753c1.337-.034,2.677-.031,4.017.037a28.249,28.249,0,0,1,4,.514l-.089.63c-1.311-.041-2.612-.085-3.922-.007-1.307.031-2.615.119-3.919.245q-3.915.358-7.815.937c-2.6.381-5.185.851-7.766,1.349-1.291.249-2.573.538-3.85.844-1.287.276-2.547.637-3.818.981l-.223-.6" transform="translate(-753.147 1828.896)" fill="#3c1c16"/>
      <path id="path142" d="M1093.764-1430.364a14.531,14.531,0,0,1,3.393-1.206c1.157-.269,2.324-.5,3.5-.657a52.455,52.455,0,0,1,7.088-.45,53.965,53.965,0,0,1,14.073,1.907,37.746,37.746,0,0,1,12.815,6.212,29.081,29.081,0,0,1,5.106,5.02,28.832,28.832,0,0,1,3.623,6.13l-.575.272a29.927,29.927,0,0,0-9.005-10.277,36.661,36.661,0,0,0-5.926-3.46,45.614,45.614,0,0,0-6.476-2.343,57.371,57.371,0,0,0-13.662-2.084,54.181,54.181,0,0,0-6.937.17,23.971,23.971,0,0,0-6.727,1.335l-.289-.569" transform="translate(-814.411 1747.843)" fill="#3c1c16"/>
      <path id="path144" d="M458.752-926.342l8.753,2.837a1.912,1.912,0,0,1,1.326,1.706,1.915,1.915,0,0,1-1.095,1.863l-9.56,4.533.016.129,13.373,2.667a.926.926,0,0,1,.728,1.09.929.929,0,0,1-1.09.729l-13.372-2.666A1.9,1.9,0,0,1,456.3-915.1a1.9,1.9,0,0,1,1.085-1.975l9.559-4.532-.009-.129-8.753-2.837a.927.927,0,0,1-.6-1.168.928.928,0,0,1,1.168-.6" transform="translate(-339.745 1370.862)" fill="#3c1c16"/>
      <path id="path146" d="M371.065-973.542l7.774,2.52a1.7,1.7,0,0,1,1.178,1.512,1.7,1.7,0,0,1-.973,1.655l-8.49,4.029.015.112,11.876,2.367a.826.826,0,0,1,.647.971.824.824,0,0,1-.969.647L370.247-962.1a1.689,1.689,0,0,1-1.362-1.464,1.689,1.689,0,0,1,.963-1.757l8.489-4.025-.008-.112-7.773-2.52a.825.825,0,0,1-.53-1.039.823.823,0,0,1,1.037-.528" transform="translate(-274.66 1406.003)" fill="#3c1c16"/>
      <path id="path148" d="M556.092-853.972l6.163,2a1.345,1.345,0,0,1,.934,1.2,1.352,1.352,0,0,1-.771,1.314l-6.731,3.191.011.092,9.416,1.876a.651.651,0,0,1,.513.766.653.653,0,0,1-.768.514l-9.416-1.876a1.339,1.339,0,0,1-1.08-1.161,1.337,1.337,0,0,1,.764-1.393l6.731-3.191-.006-.089-6.163-2a.654.654,0,0,1-.42-.824.653.653,0,0,1,.822-.419" transform="translate(-412.768 1316.966)" fill="#3c1c16"/>
      <path id="path150" d="M1966.14-1162.465h-27.355a8.164,8.164,0,0,1-8.135-8.139v-24.631a8.161,8.161,0,0,1,8.135-8.135h27.355a8.162,8.162,0,0,1,8.139,8.135v24.631a8.165,8.165,0,0,1-8.139,8.139" transform="translate(-1437.551 1577.102)" fill="#fff"/>
      <path id="path152" d="M1964.283-1164.321v-.64h-27.355a7.463,7.463,0,0,1-5.292-2.2,7.464,7.464,0,0,1-2.2-5.3v-24.631a7.457,7.457,0,0,1,2.2-5.292,7.463,7.463,0,0,1,5.292-2.2h27.355a7.465,7.465,0,0,1,5.3,2.2,7.457,7.457,0,0,1,2.2,5.292v24.631a7.465,7.465,0,0,1-2.2,5.3,7.465,7.465,0,0,1-5.3,2.2v1.277a8.8,8.8,0,0,0,8.776-8.776v-24.631a8.8,8.8,0,0,0-8.776-8.772h-27.355a8.8,8.8,0,0,0-8.772,8.772v24.631a8.8,8.8,0,0,0,8.772,8.776h27.355v-.637" transform="translate(-1435.694 1578.959)" fill="#1f3c88"/>
      <path id="path154" d="M1992.94-1035.13l-7.931-8.081h15.859Z" transform="translate(-1478.027 1457.848)" fill="#1f3c88"/>
      <path id="path156" d="M1986-1145.492a1.443,1.443,0,0,1-1.1-.511l-7.931-9.324a1.446,1.446,0,0,1,.163-2.04,1.45,1.45,0,0,1,2.043.163l6.576,7.73,10.237-18.45a1.45,1.45,0,0,1,1.972-.565,1.448,1.448,0,0,1,.562,1.968l-11.251,20.282a1.452,1.452,0,0,1-1.124.739c-.048,0-.1.007-.143.007" transform="translate(-1471.777 1551.265)" fill="#1f3c88"/>
      <path id="path158" d="M334.263-693.352c-12.148,2.878-25.622,6.865-31.383,19.111-5.443,11.568.222,22.806,11.157,28.275,7.4,3.705,35.594,9.94,23.886,23.623-7.565,8.84-20.7,6.106-29.338.889-4.5-2.721-8.6,4.325-4.113,7.036,9.823,5.936,21.129,8.112,31.813,3.2,11.6-5.326,16.159-18.978,7.312-28.963-4.536-5.122-10.944-7.529-17.241-9.7-5.956-2.05-13.754-4.342-16.646-10.621-2.721-5.908.85-12.661,5.383-16.554,5.866-5.03,14.025-6.715,21.337-8.445,5.1-1.209,2.942-9.069-2.167-7.86" transform="translate(-223.962 1197.439)" fill="#383838"/>
      <path id="path160" d="M858.839-690.051c13.81.807,14.8-17.18,14.8-17.18s-9.448-4.795-18.3,1.151l3.5,16.029" transform="translate(-636.881 1209.04)" fill="#383838"/>
      <path id="path162" d="M869.313-679.536c5.5-.085,8.205-7,8.205-7a9.86,9.86,0,0,0-9.159.058l.954,6.94" transform="translate(-646.576 1193.077)"/>
      <path id="path164" d="M706.086-765.147c-9.576-9.985,3.464-22.411,3.464-22.411s9.78,4.073,11,14.667l-14.466,7.744" transform="translate(-523.133 1267.491)" fill="#383838"/>
      <path id="path166" d="M725.33-746.164c-3.342-4.046,0-10.288,0-10.288a9.4,9.4,0,0,1,5.628,6.685l-5.628,3.6" transform="translate(-538.971 1244.329)"/>
      <path id="path168" d="M479.389-706.4a3.429,3.429,0,0,1-2.665,2.006c-9.339,1.44-11.621-1.137-11.621-1.137s-7.432,4.138-24.9-.787a4.036,4.036,0,0,1-2.315,1.791c-2.674.875-13.051-.027-19.811-.736-4.086-.432-16.056.528-16.056.528-10.906,0-23.293-2.912-28.086-13.85-6.07-13.843.315-30.437,10.608-40.347,10.982-10.591,25.634-11.544,38.958-4.6,32.317,16.84,34.76,11.347,43.052,4.366l5.593,42.441a11.475,11.475,0,0,1,4.6,2.735,14.068,14.068,0,0,1,1.839,2.333c1.447,2.329,1.311,4.083.808,5.261" transform="translate(-276.67 1252.909)" fill="#383838"/>
      <path id="path170" d="M686.041-667.045c-18.04-5.7-16.529-25.915-4.869-32.767a26.985,26.985,0,0,0-4.044,14.442,23.437,23.437,0,0,0,8.913,18.324" transform="translate(-500.69 1202.155)" fill="#262525"/>
      <path id="path172" d="M739.733-713.956c-2.63,9.246-6.972,14.541-11.425,17.487a20.59,20.59,0,0,1-11.417,3.491,26.681,26.681,0,0,1-8.071-1.26c-9.91-3.116-18.006-11.8-18.006-23.208,0-14.4,10.463-25.445,23.633-25.445,15.077,0,29.967,12.447,25.285,28.936" transform="translate(-514.377 1234.232)" fill="#383838"/>
      <path id="path174" d="M791.465-557.641c-.169,0-.331,0-.5,0,.166,0,.332,0,.5,0a20.59,20.59,0,0,0,11.417-3.491h0a20.59,20.59,0,0,1-11.417,3.491" transform="translate(-588.95 1098.895)" fill="#1d1f39"/>
      <path id="path176" d="M772.388-565.355c-.166,0-.332,0-.5,0-.035,0-.071,0-.107,0a14.071,14.071,0,0,0-1.839-2.333,11.476,11.476,0,0,0-4.6-2.734,14.733,14.733,0,0,1,2.949-.31,8.885,8.885,0,0,1,3.436.565,14.47,14.47,0,0,1,5.764-1.318,8.225,8.225,0,0,1,6.291,2.629l.017.017a20.59,20.59,0,0,1-11.417,3.491" transform="translate(-569.874 1106.609)" fill="#262525"/>
      <path id="path178" d="M780.135-557.879a4.324,4.324,0,0,0,.749,5.912,2.246,2.246,0,0,0,1.315.538h12.989c.621,0,.952-.664,1.12-1.529a7.334,7.334,0,0,0-2.612-6.94c-4.19-3.521-9.773-3.436-13.562,2.019" transform="translate(-580.265 1099.766)" fill="#383838"/>
      <path id="path180" d="M690.8-572.454a59.044,59.044,0,0,1,7.877.228,52.113,52.113,0,0,1,7.8,1.3,28.023,28.023,0,0,1,3.793,1.233,17.921,17.921,0,0,1,3.572,1.87,9.305,9.305,0,0,1,2.813,2.98,6.224,6.224,0,0,1,.662,4.015l-.475-.051a5.879,5.879,0,0,0-.923-3.528,8.383,8.383,0,0,0-2.672-2.53,24.774,24.774,0,0,0-7.073-2.816,62.73,62.73,0,0,0-7.617-1.444c-2.571-.347-5.166-.6-7.76-.776v-.48" transform="translate(-514.366 1107.36)"/>
      <path id="path182" d="M520.8-672.718a16.446,16.446,0,0,1,7.349,2.976,10.691,10.691,0,0,1,2.687,3.041,12.569,12.569,0,0,1,1.448,3.8,17.95,17.95,0,0,1,.308,4.025,27.621,27.621,0,0,1-.5,3.974,40.058,40.058,0,0,1-2.408,7.574c-.512,1.223-1.09,2.414-1.721,3.582l-.242.436-.127.225-.008.014c.057.191-.545-1.614-.283-.848l.028.014.056.021.112.044.9.354c.6.232,1.211.443,1.823.647a47.458,47.458,0,0,0,7.528,1.784,74.788,74.788,0,0,1,7.768,1.291,20.517,20.517,0,0,1,3.777,1.284,6.261,6.261,0,0,1,1.721,1.127,2.066,2.066,0,0,1,.588.94,1.513,1.513,0,0,1-.145,1.137l-.421-.228a1.16,1.16,0,0,0-.434-1.42,5.729,5.729,0,0,0-1.591-.933,20.11,20.11,0,0,0-3.687-1.076A75.131,75.131,0,0,0,537.6-640a44.658,44.658,0,0,1-7.736-1.733c-.63-.2-1.258-.416-1.878-.647l-.928-.354-.116-.044-.058-.024-.029-.01c.256.759-.367-1.042-.3-.862l.007-.014.114-.2.229-.422c.6-1.134,1.147-2.309,1.665-3.491a38.908,38.908,0,0,0,2.4-7.325,26.518,26.518,0,0,0,.508-3.794,18.485,18.485,0,0,0-.209-3.783,10.55,10.55,0,0,0-3.642-6.388,16.34,16.34,0,0,0-6.92-3.15l.092-.47" transform="translate(-387.713 1181.982)"/>
      <path id="path184" d="M809.171-659a7.168,7.168,0,0,0,3.789,3.688,6.377,6.377,0,0,0,2.619.221c.456-.044.914-.167,1.386-.235.459-.136.922-.272,1.41-.381l.234.477c-.426.279-.875.535-1.33.787a11.028,11.028,0,0,1-1.492.518,6.079,6.079,0,0,1-3.263-.075,5.344,5.344,0,0,1-2.663-1.938,6.308,6.308,0,0,1-1.2-2.925l.511-.136" transform="translate(-602.123 1171.766)"/>
      <path id="path186" d="M751.126-684.052a7.172,7.172,0,0,0,3.491,3.971,6.342,6.342,0,0,0,2.594.422c.458-.007.924-.1,1.4-.126.468-.1.941-.2,1.435-.269l.2.494c-.446.245-.914.463-1.387.681a11.4,11.4,0,0,1-1.527.4,6.1,6.1,0,0,1-3.247-.33,5.333,5.333,0,0,1-2.5-2.139,6.3,6.3,0,0,1-.971-3.007l.52-.1" transform="translate(-558.897 1190.42)"/>
      <path id="path188" d="M1951.138-1680.515h14.385l-11.486-74.374h-14.388l11.49,74.374" transform="translate(-1444.252 1987.76)" fill="#8cbfbe"/>
      <path id="path190" d="M2007.512-1680.515H2021.9l-11.486-74.374h-14.388l11.49,74.374" transform="translate(-1486.227 1987.76)" fill="#c6eae9"/>
      <path id="path192" d="M2171.608-1563.307h-53.094v-34.156h53.094v34.156" transform="translate(-1577.435 1870.541)" fill="#8cbfbe"/>
      <path id="path194" d="M2200.953-1548.03H2178.5v-5.98h22.452v5.98" transform="translate(-1622.1 1838.186)" fill="#fff"/>
      <path id="path196" d="M1866.808-1746.06h-24.985V-1842.9h24.985v96.843" transform="translate(-1371.411 2053.294)" fill="#c6eae9"/>
      <path id="path198" d="M1938.676-1452.976H1789.156v-10.754h149.521v10.754" transform="translate(-1332.196 1770.965)" fill="#8cbfbe"/>
      <path id="path200" d="M1262.08-2151.714a48.063,48.063,0,0,1-48.064,48.064,48.064,48.064,0,0,1-48.065-48.064,48.067,48.067,0,0,1,48.065-48.067,48.067,48.067,0,0,1,48.064,48.067" transform="translate(-1051.421 2411.025)" fill="#fff"/>
      <path id="path202" d="M1259.6-2154.2h-.851a47.069,47.069,0,0,1-13.826,33.386,47.068,47.068,0,0,1-33.386,13.826,47.062,47.062,0,0,1-33.386-13.826,47.068,47.068,0,0,1-13.829-33.386,47.068,47.068,0,0,1,13.829-33.386,47.08,47.08,0,0,1,33.386-13.829,47.087,47.087,0,0,1,33.386,13.829,47.069,47.069,0,0,1,13.826,33.386h1.7a48.92,48.92,0,0,0-48.915-48.918,48.921,48.921,0,0,0-48.917,48.918,48.916,48.916,0,0,0,48.917,48.915,48.915,48.915,0,0,0,48.915-48.915h-.851" transform="translate(-1048.939 2413.507)" fill="#708cd5"/>
      <path id="path204" d="M1368.685-2058.6l-20.541-9.767,22.442-19.765,1.127,1.277-20.5,18.059,18.209,8.656-.732,1.539" transform="translate(-1187.081 2327.888)" fill="#102048"/>
    </g>
  </g>
</svg>
