<svg xmlns="http://www.w3.org/2000/svg" width="56.114" height="79.208" viewBox="0 0 56.114 79.208"><defs><style>.a{fill:#2196f3;}.b{fill:#fafafa;}.c{fill:#37474f;}</style></defs><path class="a" d="M130.325,107.207a1.65,1.65,0,0,0-1.221-.541H76.3a1.65,1.65,0,0,0-1.658,1.643q0,.081.007.162L79.6,161.277a1.65,1.65,0,0,0,1.191,1.432l23.1,6.6a1.648,1.648,0,0,0,.459.063,1.7,1.7,0,0,0,.522-.082l19.8-6.6a1.65,1.65,0,0,0,1.122-1.413l4.951-52.806A1.649,1.649,0,0,0,130.325,107.207Z" transform="translate(-74.641 -90.164)"/><g transform="translate(11.558 29.706)"><path class="b" d="M167.505,228.32a1.652,1.652,0,0,1-.452-.066l-11.551-3.3a1.65,1.65,0,0,1-1.149-1.185l-1.65-6.6a1.65,1.65,0,0,1,3.183-.873c.007.025.013.049.018.074l1.419,5.677,10.182,2.911,10.033-2.868,2.97-26.769H151a1.65,1.65,0,0,1,0-3.3h31.353a1.65,1.65,0,0,1,1.65,1.832l-3.3,29.7a1.65,1.65,0,0,1-1.188,1.4l-11.551,3.3A1.634,1.634,0,0,1,167.505,228.32Z" transform="translate(-149.353 -192.019)"/><path class="b" d="M189.725,280.633H161.672a1.65,1.65,0,0,1,0-3.3h28.053a1.65,1.65,0,0,1,0,3.3Z" transform="translate(-158.371 -264.135)"/></g><g transform="translate(9.908 0)"><path class="c" d="M146.939,9.9h-6.6a1.65,1.65,0,0,1-1.65-1.65V1.65A1.65,1.65,0,0,1,140.338,0h6.6a1.65,1.65,0,0,1,0,3.3h-4.951V6.6h4.951a1.65,1.65,0,1,1,0,3.3Z" transform="translate(-138.688 0)"/><path class="c" d="M232.256,9.9h-6.6a1.65,1.65,0,1,1,0-3.3h2.617l-3.785-3.782A1.65,1.65,0,0,1,225.656,0h6.6a1.65,1.65,0,0,1,0,3.3h-2.617l3.782,3.782A1.65,1.65,0,0,1,232.256,9.9Z" transform="translate(-210.804 0.001)"/><path class="c" d="M317.59,9.9h-6.6a1.65,1.65,0,1,1,0-3.3h2.617l-3.785-3.782A1.65,1.65,0,0,1,310.99,0h6.6a1.65,1.65,0,1,1,0,3.3h-2.617l3.782,3.782A1.65,1.65,0,0,1,317.59,9.9Z" transform="translate(-282.936 0)"/></g></svg>