<svg xmlns="http://www.w3.org/2000/svg" width="56.114" height="79.208" viewBox="0 0 56.114 79.208"><defs><style>.a{fill:#37474f;}.b{fill:#ff5722;}.c{fill:#fafafa;}</style></defs><g transform="translate(3.308 0)"><path class="a" d="M97.672,0a1.65,1.65,0,0,0-1.65,1.65v6.6a1.65,1.65,0,1,0,3.3,0v-6.6A1.65,1.65,0,0,0,97.672,0Z" transform="translate(-96.022 -0.001)"/><path class="a" d="M104.272,24.633h-6.6a1.65,1.65,0,0,1,0-3.3h6.6a1.65,1.65,0,1,1,0,3.3Z" transform="translate(-96.021 -18.033)"/><path class="a" d="M140.338,9.9a1.65,1.65,0,0,1-1.65-1.65V1.65a1.65,1.65,0,1,1,3.3,0v6.6A1.65,1.65,0,0,1,140.338,9.9Z" transform="translate(-132.087 0)"/><path class="a" d="M189.606,3.3h-6.6a1.65,1.65,0,0,1,0-3.3h6.6a1.65,1.65,0,1,1,0,3.3Z" transform="translate(-168.154 0)"/><path class="a" d="M204.338,9.9a1.65,1.65,0,0,1-1.65-1.65V1.65a1.65,1.65,0,1,1,3.3,0v6.6A1.65,1.65,0,0,1,204.338,9.9Z" transform="translate(-186.186 0)"/><path class="a" d="M278.238,9.9a1.65,1.65,0,0,1-1.65-1.65V6.6l-1.98,2.64a1.71,1.71,0,0,1-2.64,0l-1.98-2.64v1.65a1.65,1.65,0,1,1-3.3,0V1.65a1.65,1.65,0,0,1,2.97-.99l3.63,4.838L276.918.66a1.65,1.65,0,0,1,2.97.99v6.6A1.65,1.65,0,0,1,278.238,9.9Z" transform="translate(-240.284 0)"/><path class="a" d="M379.956,9.9h-4.951a1.65,1.65,0,0,1-1.65-1.65V1.65a1.65,1.65,0,1,1,3.3,0V6.6h3.3a1.65,1.65,0,1,1,0,3.3Z" transform="translate(-330.45 0)"/></g><path class="b" d="M130.325,107.208a1.65,1.65,0,0,0-1.221-.541H76.3a1.65,1.65,0,0,0-1.658,1.643q0,.081.007.162L79.6,161.278a1.65,1.65,0,0,0,1.191,1.432l23.1,6.6a1.649,1.649,0,0,0,.459.063,1.7,1.7,0,0,0,.522-.082l19.8-6.6a1.65,1.65,0,0,0,1.122-1.413l4.951-52.806A1.648,1.648,0,0,0,130.325,107.208Z" transform="translate(-74.641 -90.165)"/><path class="c" d="M167.434,228.3a1.65,1.65,0,0,1-.452-.066l-11.551-3.3a1.65,1.65,0,0,1-1.149-1.185l-1.65-6.6a1.65,1.65,0,0,1,3.183-.873c.007.025.013.049.018.074l1.419,5.677,10.145,2.9,8.4-2.8,1.36-13.624H152.583a1.65,1.65,0,0,1-1.65-1.442l-1.65-13.2a1.65,1.65,0,0,1,1.65-1.858h31.353a1.65,1.65,0,1,1,0,3.3H152.8l1.238,9.9h24.947a1.651,1.651,0,0,1,1.65,1.815l-1.65,16.5a1.65,1.65,0,0,1-1.119,1.4l-9.9,3.3A1.7,1.7,0,0,1,167.434,228.3Z" transform="translate(-137.724 -162.296)"/></svg>