<svg xmlns="http://www.w3.org/2000/svg" width="2799.993" height="2799.993" viewBox="0 0 2799.993 2799.993"><defs><style>.a{fill:none;}.b{fill:#96bfd7;}.c{fill:#fff;}.d{fill:#ccccd7;}.e{fill:#7899b7;}.f{fill:#000038;}.g{fill:#a3a3b7;}.h{fill:#ffd9c0;}.i{fill:#cdc1cb;}.j{fill:#f8b3a3;}.k{fill:#fea6cc;}.l{fill:#d7ded8;}.m{fill:#d7f6ff;}.n{fill:#d7bfe0;}.o{fill:#f1f2f2;}.p{fill:#c1c2cd;}.q{fill:#fe66a8;}.r{fill:#e0d6d4;}.s{fill:#140a34;}</style></defs><g transform="translate(0 2799.993)"><path class="a" d="M0,0H2799.993V-2799.993H0Z"/><path class="b" d="M1605.823-330.033c-353.985,0-640.95-108.448-640.95-242.208,0-78.662,99.258-148.912,253.009-193.234,8.079,16.524,15.424,32.312,20.95,46.012l5.126,9.783h0c38.6,95.722,104.157,193.273,163.107,201.346a62.75,62.75,0,0,0,8.576.577c51.939,0,94.217-64.723,123.331-128.65h0c18.075-39.728,31.039-79.139,38.078-102.5q14.257.3,28.534.338,13.779-.06,27.539-.378c7.039,23.344,20.043,62.854,38.158,102.661h0c29.071,63.888,71.364,128.531,123.281,128.531a65.718,65.718,0,0,0,8.55-.577c59.812-8.192,115.885-90.473,153.068-182.655,2.346-5.786,4.971-12.05,7.854-18.691h2.147c7.019-17.379,15.013-36.547,23.165-55.7.1-.2.2-.418.3-.636,157.462,44.262,258.692,114.711,257.141,193.77-2.6,133.74-286.967,242.208-640.964,242.208" transform="translate(-613.272 330.033)"/><path class="c" d="M1521.273-712.333s-15.768,61.561-44.143,123.9c-30.7,67.407-76.034,135.709-131.907,128.074-58.95-8.073-124.5-105.625-163.107-201.346l-5.126-9.783c-31.3-77.568-120.9-222.185-71.867-186.632,61.88,55.715,206.365,142.967,416.15,145.79" transform="translate(-551.429 282.062)"/><path class="c" d="M1843.225-863.651s-76,148.3-105.206,220.634c-37.183,92.183-93.257,174.463-153.068,182.655-55.835,7.6-101.17-60.587-131.832-127.954-28.375-62.337-44.2-123.9-44.2-123.9v-.239c193.373-3.38,366.643-102.165,434.308-151.2" transform="translate(-395.109 282.061)"/><path class="c" d="M2251.015-821.913c-45.2,92.7-68.083,112.464-122.247,140.083-2.107,1.074-9.206.079-16.742-.935-10.061-1.332-20.878-2.684-21.475.935-5.786,34.2-28.573,78.761-82.917,118.171l-.119.119c-67.666,49.014-184.147,90.135-377.52,93.515-8.471.159-17.14.239-25.929.239q-9.127,0-18.035-.119c-209.789-2.823-321.114-54.5-382.994-110.217l-.113-.119c-41.114-37.044-60.4-75.878-72.225-103.3-2.549-5.925-4.754-11.334-6.77-16.046-1.963-4.633-2.682,2.207-8.192,9.067-7.948,9.862-25.867,19.745-71.867-4.812-11.715-6.284-58.686-65.22-78.882-126.542-30.16-91.586,62.528-290.407,72.529-308.064,8.94-15.748,27.764-38.993,50.776-64.663,35.066-39.092,79.946-83.851,114.594-116.441,29.321-27.619,51.343-46.529,54.045-45.992,99.076,48.338,217.932,68.2,351.052,68.2v-.04c133.144,0,252.051-19.864,351.113-68.2,2.625-.5,23.622,17.458,51.8,43.924,35.533,33.286,82.5,80.113,118.549,120.5,22.25,24.875,40.324,47.344,49.034,62.714,10,17.657,43.049,104.511,51.162,129.306,23.045,70.668,21.375,178.718,21.375,178.718" transform="translate(-616.168 39.632)"/><path class="d" d="M1468.272-608.35c-224.024-11.93-295.014-73.273-295.014-73.273h0c-16.82-41.677-43.252-97.87-64.48-141.5q9.571,8.143,19.729,15.41c39.651,28.374,84.1,47.364,129.175,61.561,45.272,13.72,91.543,22.589,137.912,28.017,36.883,4.275,73.851,6.482,110.756,7.278-7.039,23.364-20,62.774-38.078,102.5h0" transform="translate(-542.571 301.977)"/><path class="e" d="M1634.863-709.889c7.258-16.8,16.047-35.99,25.313-55.7-8.152,19.148-16.146,38.317-23.165,55.7h-2.147" transform="translate(-284.099 330.243)"/><path class="d" d="M1451.128-611.414h0c-18.114-39.808-31.119-79.318-38.158-102.662,37.2-.855,74.446-3.2,111.63-7.516,46.33-5.409,92.6-13.8,137.936-27.38,45.2-13.621,89.816-32.332,129.823-60.368q5.041-3.549,9.923-7.3c-9.7,21.892-21.535,48.994-33.088,76.136-9.266,19.705-18.055,38.893-25.312,55.7-.438.378-69.734,62.257-292.753,73.392" transform="translate(-393.118 305.16)"/><path class="f" d="M1714.428-824.879c0,.477-.06.378-.259-.279.2,0,.259.079.259.279" transform="translate(-245.135 300.973)"/><path class="d" d="M1539.716-703.818a1178.17,1178.17,0,0,1-126.389-6.323c-44.367-4.852-88.22-12.984-130.462-25.452-41.987-12.825-82.664-30.065-117.6-54.721a255.958,255.958,0,0,1-46.928-42.075,205.991,205.991,0,0,1-17.942-25.074,148.545,148.545,0,0,1-12.585-27.241c-3.1-9.365-5.1-18.572-5.14-27.6l.072-14.654c30.222,63.192,130.764,169.194,465.2,169.194,320.551,0,426.872-97.372,462.126-161.1l.1,7.4a96.161,96.161,0,0,1-4.514,27.619c-5.667,18.532-16.106,36.209-29.21,51.917-13.1,15.768-29.07,29.528-46.409,41.677-34.857,24.3-75.5,41.418-117.615,53.906-42.194,12.487-86.138,20.361-130.519,25.372-44.4,4.991-89.319,7.019-134.317,7.139-2.625,0-5.25.02-7.874.02" transform="translate(-555.397 250.958)"/><path class="d" d="M1075.579-779.049c-13.929-1.452-31.047-7.874-47.468-18.194-2.752-1.73-6.066-3.937-9.755-6.661,28.2-196.534,99-319.6,154.528-389.013q8.339,3.341,17.506,6.641c-.917,1.551-1.835,3.122-2.758,4.673-5.637,10.081-10.934,20.361-16.259,30.621-20.389,41.5-36.976,84.825-51.723,128.809q-3.708,11.274-7.2,22.648c-11.761,1.889-25.752,19.685-23.4,37.939h0c.018.139.038.278.056.418,0,0,0,.02,0,.02a.7.7,0,0,1,.014.1s0,0,0,.02c.014.079.028.179.042.278,0,0,0,.02.006.02a.689.689,0,0,0,.012.079l.006.06c0,.02.01.04.014.06a.255.255,0,0,0,0,.04c.008.04.016.1.024.139,0,.02.006.04.01.059s.006.04.01.06l.012.06c0,.02.006.04.01.059a.547.547,0,0,0,.014.079c0,.02.006.04.01.06.006.04.014.06.02.1,0,.02.006.04.008.06a.367.367,0,0,1,.016.079.275.275,0,0,1,.008.04c.006.04.012.06.018.1,0,0,.006.02.008.02.008.04.016.079.024.139,0,0,0,.02.006.02.006.039.014.059.02.1,0,.02.006.02.008.04.006.04.014.06.02.1,0,0,0,.02.006.02.01.04.018.079.028.139h0c.008.04.018.079.026.119,0,.02,0,.02.006.04a.74.74,0,0,1,.024.1s0,.02.006.02c.018.1.04.179.06.258,0,.02,0,.02,0,.02.008.04.018.079.028.119a.082.082,0,0,0,0,.02c.032.139.064.258.1.4,0,0,0,.02,0,.02a31.859,31.859,0,0,0,2.559,6.721h0c.069.139.141.258.213.4h0c.022.04.046.1.07.139h0c.05.08.1.179.147.259,0,.02,0,.02.006.02l.066.119s.006,0,.008.02c.048.079.1.159.147.259h.008l.066.119s.008.02.012.02l.071.119h0a.866.866,0,0,0,.078.139h0c.024.04.046.08.069.119a.36.36,0,0,1,.014.04.408.408,0,0,1,.068.1s.006.02.008.02c.026.04.054.079.08.119l0,.02a.436.436,0,0,0,.073.1c.006.02.012.04.018.04.02.039.038.059.06.1.006,0,.014.02.02.02.026.04.052.1.075.139h0c.3.477.638.994,1.008,1.591-.662-.4-1.008-.617-1.008-.617l1.2,13.163q-5.512,23.712-9.664,47.781a657.866,657.866,0,0,0-8.367,69.952c-.3,5.906-.839,11.771-.933,17.677l-.37,17.756c-.036.676-.022,1.531.01,2.406" transform="translate(-586.996 120.289)"/><path class="d" d="M1770.573-778.408v-1.77l-.5-17.8c-.179-5.945-.736-11.831-1.094-17.736a681.163,681.163,0,0,0-9.127-69.933q-5.19-27.8-12.03-55.1c2.088-3.082,3.659-5.568,4.792-7.337h0a.478.478,0,0,1,.08-.139.019.019,0,0,1,.02-.02c.02-.04.04-.06.04-.1.02,0,.02-.02.039-.04.02-.04.04-.06.06-.1v-.02a.42.42,0,0,0,.079-.119.069.069,0,0,0,.02-.04c.02-.02.04-.06.06-.08,0-.02.02-.02.02-.04.02-.04.04-.06.059-.1a.02.02,0,0,1,.02-.02l.059-.119a.02.02,0,0,1,.02-.02l.06-.12.02-.02a.426.426,0,0,1,.06-.1v-.04c.059-.08.1-.159.159-.239v-.02l.06-.119.02-.02c.04-.08.1-.159.139-.259l.02-.02c.02-.04.02-.06.04-.1a.02.02,0,0,0,.02-.02l.06-.119a.019.019,0,0,1,.02-.02l.06-.12v-.02l.059-.119a.02.02,0,0,0,.02-.02l.06-.119h0c.04-.1.1-.179.139-.258v-.02l.06-.12a.019.019,0,0,1,.02-.02c.04-.079.08-.179.119-.258v-.02l.059-.12h0a1.807,1.807,0,0,0,.139-.278h0l.06-.119v-.02c.059-.139.119-.259.179-.4v-.02l.06-.119h0c.04-.1.08-.179.119-.278h0l.06-.119v-.02c.06-.139.119-.258.179-.4v-.02c.04-.119.1-.258.159-.4h0a3.53,3.53,0,0,1,.159-.418h0c.059-.179.119-.358.2-.557h0a3.2,3.2,0,0,1,.139-.4h0a3.445,3.445,0,0,1,.139-.418h0c.139-.457.278-.914.4-1.392h0a31.383,31.383,0,0,0,.855-4.414v-.02q.029-.268.059-.537h0c0-.139.02-.278.02-.417h.02c0-.14.02-.279.02-.418h0a.34.34,0,0,1,.02-.139h0a1.312,1.312,0,0,1,.02-.278h0v-.139a1.155,1.155,0,0,1,.02-.259v-.3a.252.252,0,0,1,.02-.119v-.418h0v-.577c0-.04.02-.06.02-.1V-965a.121.121,0,0,0-.02-.08V-966a.436.436,0,0,0-.02-.159v-.437h0c0-.04-.02-.06-.02-.1v-.119c0-.139-.02-.278-.02-.4v-.02C1756.314-984.11,1742.614-999,1731.856-999a4.446,4.446,0,0,0-.517.02q-3.4-10.857-6.979-21.654c-7.3-22.012-15.271-43.745-23.7-65.26-8.411-21.555-17.339-42.87-27.5-63.609q-7.815-15.48-15.967-30.761c-1.312-2.287-2.625-4.573-3.957-6.84q9.783-3.578,18.612-7.2c55.894,69.177,128.034,193.094,156.388,392.353-.736.517-1.491,1.014-2.227,1.531-20.68,13.879-40.623,20.52-55.437,22.012" transform="translate(-275.073 119.608)"/><path class="f" d="M1116.24-657.264c-22.055,0-47.986-8.391-72.839-24-48.074-30.2-81.2-78.6-90.865-132.806-19.918-111.609,25.758-242.825,132.09-379.488,79.151-101.727,162.739-170.068,166.259-172.932l22.865,28.136c-3.3,2.685-329.535,271.279-285.528,517.9,11.195,62.734,55.8,96.776,74.464,108.488,23.388,14.694,48.187,21.495,63.178,17.3l9.749,34.917a72.029,72.029,0,0,1-19.373,2.485" transform="translate(-621.571 35.011)"/><path class="f" d="M1104.761-926.784c-1.521.04-2.2-.02-3.2-.06l-2.67-.179c-1.75-.159-3.446-.358-5.13-.6-3.373-.457-6.665-1.094-9.922-1.849a107.763,107.763,0,0,1-18.975-6.3,83.263,83.263,0,0,1-31.568-23.682,72.344,72.344,0,0,1-10.046-16.364A80.927,80.927,0,0,1,1017.6-993.4a116.743,116.743,0,0,1-1.471-35.135,112.146,112.146,0,0,0,10.046,32.192,64.336,64.336,0,0,0,19.81,23.94,60.657,60.657,0,0,0,26.993,10.678,77.3,77.3,0,0,0,14.531.736,70.974,70.974,0,0,0,7.172-.616c1.165-.139,2.326-.318,3.432-.537l1.617-.338c.417-.12,1.165-.279,1.068-.358l3.963,36.05" transform="translate(-588.421 201.054)"/><path class="f" d="M1369.142-416.824a83.239,83.239,0,0,1-11.294-.756c-69.954-9.544-161.355-152.312-287.645-449.281-4.677-11.016-9.1-21.4-10.125-23.384a17.028,17.028,0,0,0,5.2,5.707l20.819-29.687c4.8,3.38,4.8,3.38,17.468,33.167,19.5,45.873,65.186,153.286,116.543,248.69,83.593,155.275,127.6,176.809,142.639,178.857,75.048,10.32,143.171-173.509,161.126-238.689l34.956,9.624c-.756,2.8-19.188,69.038-51.381,134.6-42.786,87.112-89.263,131.156-138.308,131.156" transform="translate(-566.498 257.214)"/><path class="f" d="M1891.259-1242.49c3.957,4.315,7.754,8.789,11.333,13.363,3.659,4.553,7.2,9.167,10.539,13.9,6.94,9.326,13.183,19.069,19.486,28.792,6.164,9.8,11.871,19.825,17.657,29.846q8.173,15.271,15.967,30.761c10.161,20.739,19.089,42.055,27.5,63.61,8.431,21.515,16.4,43.247,23.7,65.259s14.1,44.222,20.063,66.711q8.918,33.763,15.43,68.282a681.086,681.086,0,0,1,9.126,69.932c.358,5.906.915,11.791,1.094,17.737l.5,17.8a137.1,137.1,0,0,1-5.786,39.45c-7.337,25.094-20.4,47.443-36.149,66.87a269.012,269.012,0,0,1-54.323,50.068c-40.007,28.037-84.627,46.748-129.823,60.368-45.336,13.581-91.606,21.972-137.936,27.38a1251.02,1251.02,0,0,1-139.169,7.894c-46.37-.12-92.9-2.247-139.29-7.616-46.37-5.428-92.64-14.3-137.912-28.017-45.071-14.2-89.524-33.187-129.175-61.561a290.135,290.135,0,0,1-53.983-49.949,242.939,242.939,0,0,1-21.361-30.9,187.35,187.35,0,0,1-15.494-35.056l-1.467-4.653-1.213-4.772c-.863-3.162-1.5-6.442-2.072-9.743-.678-3.241-.951-6.721-1.354-10.1-.227-1.67-.2-3.48-.31-5.229-.048-1.69-.179-3.679-.108-5.031l.37-17.756c.094-5.906.632-11.771.933-17.677a657.829,657.829,0,0,1,8.367-69.952c7.888-46.171,19.922-91.248,34.411-135.331,14.746-43.984,31.333-87.311,51.722-128.809,5.325-10.26,10.622-20.54,16.259-30.622,5.906-9.962,11.63-19.984,17.967-29.687,6.347-9.683,12.764-19.307,19.783-28.573,3.392-4.693,7-9.266,10.689-13.76,3.617-4.554,7.471-8.948,11.471-13.223-14.881,44.123-31.391,86.3-47.976,128.432-16.774,42-33.308,83.99-46.7,126.96-13.362,42.93-24.237,86.555-31.043,130.6a622.523,622.523,0,0,0-6.86,66.174c-.185,5.528-.618,11.036-.61,16.544l-.082,16.5c.038,9.027,2.042,18.234,5.14,27.6a148.565,148.565,0,0,0,12.585,27.241,205.963,205.963,0,0,0,17.942,25.074,255.983,255.983,0,0,0,46.928,42.075c34.934,24.656,75.611,41.9,117.6,54.721,42.242,12.467,86.094,20.6,130.462,25.452,44.407,4.792,89.286,6.522,134.263,6.3,45-.12,89.916-2.148,134.317-7.139,44.381-5.011,88.325-12.885,130.519-25.372,42.114-12.487,82.758-29.607,117.614-53.906,17.339-12.149,33.306-25.909,46.409-41.677,13.1-15.708,23.543-33.386,29.21-51.917a96.159,96.159,0,0,0,4.514-27.619l-.239-16.4c-.079-5.468-.537-10.956-.8-16.444a640.569,640.569,0,0,0-7.715-65.876c-3.778-21.912-8.451-43.745-13.859-65.459-5.469-21.713-11.752-43.267-18.552-64.7-6.78-21.435-14.257-42.691-22.191-63.788l-24.4-63.192-6.005-15.868-5.906-15.967-11.374-32.192c-7.337-21.674-14.575-43.427-20.639-66.154" transform="translate(-568.154 95.933)"/><path class="f" d="M1779.752-657.08a74.707,74.707,0,0,1-19.884-2.525l9.763-34.917c13.641,3.8,41.876-1.193,71.583-21.157,37.163-24.994,61.183-62.715,65.9-103.517,31.914-276.468-281.659-516.251-284.82-518.637l21.813-28.951c3.4,2.565,84.11,63.828,161.817,162.075,104.014,131.493,151.457,266.228,137.2,389.668-5.926,51.36-35.712,98.546-81.684,129.445-27.38,18.412-56.988,28.514-81.684,28.514" transform="translate(-290.277 34.867)"/><path class="f" d="M1716.966-962.827c-.08.079.656.239,1.074.338l1.611.338c1.114.219,2.267.4,3.44.557,2.346.318,4.752.517,7.178.616a80.561,80.561,0,0,0,14.516-.736,60.849,60.849,0,0,0,27-10.678c8.133-5.786,14.933-14.157,19.8-23.961a111.6,111.6,0,0,0,10.042-32.192,116.435,116.435,0,0,1-1.472,35.135,80.723,80.723,0,0,1-5.627,17.577,71.439,71.439,0,0,1-10.061,16.365,83.294,83.294,0,0,1-31.556,23.7,109.644,109.644,0,0,1-18.989,6.3c-3.241.755-6.542,1.392-9.922,1.849-1.671.239-3.38.438-5.13.577l-2.665.2a32,32,0,0,1-3.2.04l3.957-36.03" transform="translate(-245.705 201.048)"/><path class="f" d="M1583.544-416.811c-49.034,0-95.523-44.043-138.333-131.156-32.232-65.558-50.685-131.791-51.44-134.576l34.936-9.664c18.015,65.18,86.516,248.949,161.24,238.689,15.032-2.048,59.036-23.583,142.609-178.857,51.321-95.4,96.975-202.818,116.481-248.69,12.666-29.806,12.666-29.806,17.458-33.187l20.819,29.687a17.016,17.016,0,0,0,5.209-5.707c-1.034,1.988-5.448,12.368-10.121,23.384-126.224,296.989-217.611,439.757-287.564,449.3a83.137,83.137,0,0,1-11.294.775" transform="translate(-402.551 257.201)"/><path class="d" d="M1556.129-1099.462c-168.48,0-282.873-19.307-359.9-43.129,7.791-20.123,15.454-40.424,22.825-61.044,84.084,25.173,197.63,38.137,337.928,38.137,142.529,0,257.459-13.382,341.927-39.35,4.136,13.362,8.531,26.505,12.985,39.629l7.735,21.872c-77.707,24.179-193.274,43.884-363.5,43.884m-402.09-57.982c-54.494-21.793-83.259-44.759-97.327-59.215,13.169-17.1,26.551-33.326,39.7-48.457,25.643,22.33,60.9,41.041,105.326,55.993a472.345,472.345,0,0,0-47.7,51.679" transform="translate(-568.151 84.817)"/><path class="g" d="M1139.48-1169.25q-9.157-3.281-17.506-6.641a472.334,472.334,0,0,1,47.7-51.679c2.2.736,4.426,1.471,6.671,2.187-.63.835-1.253,1.69-1.869,2.545-7.019,9.266-13.436,18.89-19.783,28.573-5.347,8.172-10.258,16.6-15.209,25.014" transform="translate(-536.087 103.264)"/><path class="d" d="M1681.477-1157.829a465.878,465.878,0,0,0-47.841-51.281c45.435-15.808,80.968-35.672,106.1-59.434,13.3,15.092,26.844,31.4,40.146,48.776-12.01,13.342-40.206,38.157-98.407,61.939" transform="translate(-284.702 83.133)"/><path class="g" d="M1665.191-1170.211c-4.454-7.735-8.948-15.45-13.7-23.006-6.3-9.724-12.547-19.467-19.486-28.792-1.014-1.432-2.048-2.863-3.1-4.275,2.386-.8,4.732-1.591,7.059-2.406a465.888,465.888,0,0,1,47.841,51.281q-8.829,3.609-18.611,7.2" transform="translate(-287.028 102.714)"/><path class="f" d="M1062.127-1211.137c-8.785-9.027-11.835-14.714-11.835-14.714s-1.789-2.963-4.6-8.411c12.2-13.6,25.577-27.878,39.3-42.095a173.078,173.078,0,0,0,16.83,16.762c-13.145,15.132-26.527,31.358-39.7,48.458" transform="translate(-573.566 79.295)"/><path class="f" d="M1158.4-1161.281c-8.705-2.684-16.911-5.428-24.686-8.212,4.951-8.411,9.862-16.842,15.209-25.014,6.347-9.684,12.764-19.307,19.783-28.573.616-.855,1.239-1.71,1.869-2.545,3.5,1.113,7.043,2.227,10.65,3.3-7.371,20.62-15.035,40.921-22.825,61.044m723.4-.755-7.735-21.873c-4.454-13.124-8.849-26.267-12.985-39.629,3.778-1.153,7.457-2.346,11.116-3.539,1.054,1.412,2.088,2.844,3.1,4.275,6.94,9.326,13.183,19.069,19.486,28.792,4.752,7.556,9.246,15.271,13.7,23.006q-12.527,4.563-26.685,8.968" transform="translate(-530.32 103.507)"/><path class="f" d="M1744.928-1214.835c-13.3-17.379-26.843-33.684-40.146-48.776a166.884,166.884,0,0,0,14.019-14.973c15.49,15.987,30.641,32.132,44.222,47.364-6.383,4.076-10.419,6.462-10.419,6.462a63.473,63.473,0,0,1-7.675,9.922" transform="translate(-249.747 78.201)"/><path class="c" d="M1979.486-1363.878s70.389,66.552,47.384,103.139c-23.046,36.607-104.332,126.006-475.568,126.006s-452.56-89.4-475.61-126.006c-23.01-36.587,47.39-103.139,47.39-103.139l.913-2.545c146.733,52.215,300.158,73.829,427.307,73.829s280.565-21.614,427.269-73.829l.915,2.545" transform="translate(-561.096 35.044)"/><path class="d" d="M1547.851-1229.878c-127.147,0-280.573-21.594-427.305-73.81l-.912,2.545a276.469,276.469,0,0,0-29.462,33.863c-2.281-2.923-4.257-5.767-5.969-8.471-9.493-15.072,17.671-54,42.041-77.965,116.906,50.387,258.31,74.466,419.362,74.466,160.305,0,301.144-23.861,417.725-73.75,24.2,24,50.724,62.317,41.339,77.25-.8,1.273-1.67,2.565-2.585,3.9a277.666,277.666,0,0,0-26.048-29.289l-.914-2.545c-146.705,52.216-300.131,73.81-427.27,73.81" transform="translate(-555.598 41.287)"/><path class="f" d="M1556.366-1112.508c-265.771,0-435.523-46.509-490.912-134.476-29.476-46.807,36.708-113.16,50.275-125.985l24.906,26.346c-24.952,23.662-54.311,64.743-44.5,80.332,27.637,43.884,124.174,117.535,460.229,117.535s432.6-73.651,460.237-117.535c9.8-15.589-19.546-56.67-44.521-80.352L1997-1372.97c13.581,12.825,79.755,79.178,50.287,125.985-55.4,87.967-225.148,134.476-490.918,134.476" transform="translate(-567.533 31.828)"/><path class="h" d="M2100.393-1635.5c0,319.776-117.416,524.542-532.138,524.542-414.7,0-532.094-204.766-532.094-524.542s267.294-366.961,532.094-366.961c264.816,0,532.138,47.185,532.138,366.961" transform="translate(-578.248 -277.449)"/><path class="i" d="M1924.544-1630.35h0v-5.15c0-319.12-266.188-366.762-530.468-366.961h2.327c263.5.477,528.141,48.775,528.141,366.941v5.17" transform="translate(-402.4 -277.449)"/><path class="j" d="M1042.833-1578.871q-1.343-27.678-1.334-56.65c0-317.23,263.08-366.185,525.8-366.941,264.279.2,530.468,47.841,530.468,366.96v5.15c-46.132-239.942-286.152-278.1-524.165-278.1-254.121,0-510.482,43.487-530.772,329.579" transform="translate(-575.625 -277.449)"/><path class="c" d="M1954.105-2139.461c38.794,0,51.023,363.4,51.142,367.419-33.307-48.319-78.781-59.831-98.625-62.575l.139-.875s9.286-303.968,47.344-303.968" transform="translate(-150.581 -344.758)"/><path class="c" d="M2008.51-1872.165c25.968,37.66,44.46,97.75,37.561,193.492-13.541,187.129-73.969,216.16-146.069,228.528,20.5-71.325,31.536-151.6,32.291-241.095.8-91.884-10.438-173.091-32.312-244.395h.02a78.35,78.35,0,0,1,9.882.875c19.844,2.744,65.32,14.257,98.625,62.575v.02" transform="translate(-153.844 -244.616)"/><path class="c" d="M1690.625-2122.844c-17.876,62.436-70.728,137.677-221.767,137.677-150.994,0-203.844-75.221-221.706-137.677-12.676-44.322-7.735-82.181-7.735-82.181,71.7-12.11,148.552-17.876,229.441-17.876,80.908,0,157.76,5.766,229.482,17.876,0,0,4.951,37.859-7.715,82.181" transform="translate(-478.852 -385.752)"/><path class="c" d="M911.8-1834.638c-19.825,2.764-65.309,14.277-98.609,62.576.028-1.471,1.471-44.043,4.848-99.719,6.6-108.786,20.624-267.68,46.25-267.68,25.845,0,38.46,140.064,43.86,230.059,2.577,42.532,3.53,73.909,3.53,73.909l.121.854" transform="translate(-687.794 -344.758)"/><path class="c" d="M905.049-1621.447c4.541,61.959,14.486,119.026,29.494,171.282-72.1-12.368-132.528-41.4-146.062-228.528-3.653-50.823-.153-91.606,7.826-124.335,7.027-28.872,17.556-51.5,29.743-69.137v-.04c33.3-48.3,78.785-59.812,98.609-62.575a80.406,80.406,0,0,1,9.884-.854c-21.884,71.284-33.115,152.511-32.32,244.395q.278,35.911,2.826,69.793" transform="translate(-700.647 -244.616)"/><path class="c" d="M1652.717-1900.046c264.817,0,532.138,47.165,532.138,366.941s-117.416,524.562-532.138,524.562c-414.7,0-532.092-204.786-532.092-524.562s267.294-366.941,532.092-366.941m756.132,99.659c-73.233-239.087-266.069-366.623-526.65-410.527,0,0,4.951,37.859-7.735,82.181-17.856,62.436-70.708,137.678-221.747,137.678-150.994,0-203.844-75.222-221.706-137.678-12.676-44.322-7.735-82.181-7.735-82.181-260.573,43.884-453.409,171.44-526.67,410.526-21.885,71.265-33.115,152.431-32.32,244.276v.418c.8,89.379,11.847,169.552,32.32,240.777C987.053-999.794,1262.02-858.1,1652.717-858.1c390.723,0,665.679-141.694,756.152-456.817,20.521-71.324,31.536-151.557,32.292-241.055v-.02c.8-91.884-10.419-173.111-32.311-244.395" transform="translate(-662.711 -379.864)"/><path class="k" d="M1265.274-1620.244c0,21.594-30.1,39.092-67.228,39.092s-67.228-17.5-67.228-39.092c0-21.614,30.1-39.112,67.228-39.112s67.228,17.5,67.228,39.112" transform="translate(-531.743 -108.877)"/><path class="k" d="M1695.946-1620.244c0,21.594-30.1,39.092-67.228,39.092s-67.228-17.5-67.228-39.092c0-21.614,30.1-39.112,67.228-39.112s67.228,17.5,67.228,39.112" transform="translate(-320.149 -108.877)"/><path class="j" d="M1529.8-1533.042s-29.329-18.234-110.138-20.381c-3.7-.1-7.258-.159-10.718-.159-72.255,0-94.394,20.54-94.394,20.54s21.353-57.127,107.7-57.127,107.553,57.127,107.553,57.127" transform="translate(-441.471 -74.885)"/><path class="l" d="M1359.287-1259.241q-52.76-11.781-95.837-30.522c-10.2-5.209-19.753-10.22-28.23-14.535-9.117-4.613-12.8-16.365-21.26-21.237-18.681-10.817-24.692-30.741-40.144-42.094-14.144-10.4-26.9-20.819-38.345-30.86a532.553,532.553,0,0,1-49.213-49.333,411.7,411.7,0,0,1-20.641-43.328l179.327-248.233,36.465,4.812,35.809,4.752,25.346,3.341,21.95,2.943h.044l33.765,4.454s-4.408,404.4-39.037,459.84m-129.209-360.8c-37.13,0-67.228,17.5-67.228,39.112,0,21.594,30.1,39.092,67.228,39.092s67.228-17.5,67.228-39.092c0-21.614-30.1-39.112-67.228-39.112" transform="translate(-563.776 -148.194)"/><path class="m" d="M1353.218-1334.758a5.6,5.6,0,0,1-1.6-.219c-27.933-7.675-59.249-22.827-86.09-36.567q43.177,18.671,95.838,30.522c-2.549,4.076-5.261,6.263-8.146,6.263M1088.336-1529.6c-18.085-20.779-26.945-34.6-26.945-34.6l6.3-8.729a411.673,411.673,0,0,0,20.642,43.327" transform="translate(-565.852 -66.415)"/><path class="n" d="M1198.045-1581.152c-37.13,0-67.228-17.5-67.228-39.092,0-21.614,30.1-39.112,67.228-39.112s67.228,17.5,67.228,39.112c0,21.594-30.1,39.092-67.228,39.092" transform="translate(-531.743 -108.877)"/><path class="l" d="M1534.2-1260.926c-34.4-54.165-36.964-453.795-36.964-453.795l33.763-4.454h.04l21.952-2.943,25.352-3.34,35.791-4.752,36.467-4.812,177.624,245.847a397.132,397.132,0,0,1-30.084,58.062c-10.479,11.254-23.146,23.841-38.059,36.964-11.453,10.061-24.2,20.481-38.336,30.88-15.47,11.353-34.1,30.124-52.792,40.941-8.451,4.872-13.362,10.419-22.469,15.052-16.146,8.192-32.948,19.208-50.864,29.369a573.1,573.1,0,0,1-61.422,16.981m126.085-361.254c-37.124,0-67.228,17.5-67.228,39.112,0,21.594,30.1,39.092,67.228,39.092s67.228-17.5,67.228-39.092c0-21.614-30.1-39.112-67.228-39.112" transform="translate(-351.717 -146.052)"/><path class="m" d="M1530.036-1335.875c-2.844,0-5.508-2.107-8.013-6.045a573.148,573.148,0,0,0,61.422-16.981c-16.265,9.246-33.425,17.757-51.778,22.787a5.884,5.884,0,0,1-1.63.239m255.928-176.233a397.159,397.159,0,0,0,30.085-58.062l8.013,11.115s-12.487,19.487-38.1,46.947" transform="translate(-339.539 -65.058)"/><path class="n" d="M1628.718-1581.152c-37.124,0-67.228-17.5-67.228-39.092,0-21.614,30.1-39.112,67.228-39.112s67.228,17.5,67.228,39.112c0,21.594-30.1,39.092-67.228,39.092" transform="translate(-320.149 -108.877)"/><path class="f" d="M1325.327-1686.179c-60.454,0-130.921-20.64-162.7-41.816a18.145,18.145,0,0,1-5.029-25.153,18.131,18.131,0,0,1,25.14-5.031c34.59,23.066,133.253,46.37,184.92,30.463a18.132,18.132,0,0,1,22.66,12.01,18.121,18.121,0,0,1-12,22.648c-15.613,4.812-33.8,6.88-52.991,6.88" transform="translate(-520.084 -158.925)"/><path class="f" d="M1535.563-1686.179c-19.188,0-37.362-2.068-52.991-6.88a18.121,18.121,0,0,1-11.99-22.648,18.129,18.129,0,0,1,22.668-12.01c51.658,15.907,150.324-7.4,184.9-30.462a18.152,18.152,0,0,1,25.153,5.031,18.152,18.152,0,0,1-5.031,25.153c-31.775,21.177-102.244,41.816-162.712,41.816" transform="translate(-365.208 -158.925)"/><path class="f" d="M1366.386-1852.662c-5.043,11.672-12.453,22.012-20.832,31.576a145.161,145.161,0,0,1-29.305,25.213,123.973,123.973,0,0,1-36.986,16.166,114.642,114.642,0,0,1-20.812,3.062,116.275,116.275,0,0,1-21.33-1.253,111.374,111.374,0,0,1-20.632-5.667,108.355,108.355,0,0,1-18.779-9.683,118.446,118.446,0,0,1-29.655-27.659,139.274,139.274,0,0,1-18.961-33.8c-4.544-11.891-7.868-24.219-8.437-36.925,15.774,19.446,31.206,37.084,48.166,51.162,16.9,14.1,35.046,23.662,54.2,26.823,19.141,3.281,39.629.04,60.382-7.536,20.815-7.556,41.425-18.771,62.987-31.476" transform="translate(-526.909 -222.998)"/><path class="f" d="M1494.637-1855.118c21.455,12.9,41.975,24.278,62.714,32.013,20.7,7.755,41.16,11.175,60.329,8.053,19.168-2.982,37.4-12.408,54.423-26.346,17.081-13.939,32.65-31.437,48.6-50.744-.676,12.706-4.116,24.994-8.749,36.845a138.885,138.885,0,0,1-19.268,33.644,118.231,118.231,0,0,1-29.886,27.4,106.645,106.645,0,0,1-18.85,9.5,111.654,111.654,0,0,1-20.679,5.508,114.767,114.767,0,0,1-21.356,1.054,114.536,114.536,0,0,1-20.779-3.241,124.127,124.127,0,0,1-36.845-16.464,146.21,146.21,0,0,1-29.09-25.471c-8.292-9.624-15.609-20.043-20.56-31.755" transform="translate(-352.995 -223.247)"/><path class="f" d="M1531.445-1525.519a116.459,116.459,0,0,0-24.458-21.4,125.934,125.934,0,0,0-26.565-13.243c-18.432-6.144-37.561-8.61-57.624-8.59-20.083-.02-39.212,2.446-57.644,8.59a125.939,125.939,0,0,0-26.565,13.243,116.724,116.724,0,0,0-24.461,21.4c.3-11.851,4.987-23.423,11.622-33.684a95.3,95.3,0,0,1,26.321-26.227c21.216-13.661,46.628-19.666,70.728-19.566,24.079-.1,49.491,5.906,70.708,19.566a95.271,95.271,0,0,1,26.327,26.227c6.622,10.26,11.314,21.833,11.613,33.684" transform="translate(-441.68 -82.17)"/><path class="c" d="M2441.161-1550.1c-.517-4.474-56.073-466.938-566.7-572.741-66.015-13.68-139.646-21.416-221.747-21.416-82.082,0-155.688,7.735-221.706,21.416-513.1,106.32-566.693,572.761-566.693,572.761l-.032-.139c-.8-91.845,10.435-173.012,32.32-244.276,73.261-239.087,266.1-366.644,526.67-410.527,71.7-12.11,148.552-17.876,229.44-17.876,80.908,0,157.761,5.766,229.482,17.876,260.581,43.9,453.417,171.441,526.65,410.527,21.892,71.284,33.107,152.511,32.311,244.395" transform="translate(-662.711 -385.752)"/><path class="d" d="M1652.7-1073.87c-161.052,0-302.455-24.08-419.362-74.466q-17.812-7.665-34.827-16.146c-148.161-73.83-252.548-194.188-301.922-366.205h0c-15.008-52.255-24.953-109.323-29.494-171.282h-.02q-2.389-32.54-2.78-66.87-.015-1.312-.026-2.625v-.02l.032-.259s34.712,630.107,788.438,630.107c753.687,0,788.4-630.107,788.4-630.107q-.3,35.881-2.783,69.793h-.02c-4.534,61.958-14.476,119.006-29.488,171.281h0c-49.571,172.634-154.539,293.231-303.57,366.981q-17.061,8.471-34.857,16.066c-116.581,49.889-257.42,73.75-417.726,73.75" transform="translate(-662.698 -164.094)"/><path class="d" d="M934.543-1493.852c-72.1-12.368-132.528-41.4-146.063-228.528q-1.477-20.55-1.448-38.953c.006-33.266,3.446-61.482,9.274-85.382.4,4.891,15.462,181.6,106.875,181.6.619,0,1.223,0,1.847-.02q6.824,92.968,29.514,171.282h0" transform="translate(-700.647 -200.929)"/><path class="g" d="M895.669-1553.674q-22.525-78.383-29.514-171.282h.02c4.542,61.959,14.486,119.026,29.494,171.282" transform="translate(-661.774 -141.107)"/><path class="d" d="M813.2-1847.855c.028-1.472,1.471-44.044,4.848-99.719,20.624-20.859,49.814-37.382,90.111-37.62,2.577,42.532,3.53,73.909,3.53,73.909l.121.855c-19.825,2.764-65.309,14.276-98.609,62.576" transform="translate(-687.794 -268.965)"/><path class="b" d="M1900-1597.158h0q5.548-19.208,10.141-39.291-4.623,20.1-10.141,39.311c17.4-2.983,34.1-6.939,49.651-13.84-15.55,6.9-32.252,10.857-49.651,13.84" transform="translate(-153.837 -97.622)"/><path class="d" d="M1900-1493.839q5.548-19.238,10.141-39.311a882.24,882.24,0,0,0,19.367-131.97c.617,0,1.233.02,1.849.02,91.407-.02,106.479-176.73,106.877-181.6,7.973,32.71,11.473,73.512,7.834,124.335-10.28,141.972-47.543,192.956-96.418,214.689-15.55,6.9-32.252,10.857-49.651,13.839" transform="translate(-153.837 -200.922)"/><path class="g" d="M1906.8-1592.972h0a882.292,882.292,0,0,0,19.367-131.971h-.02a879.822,879.822,0,0,1-19.347,131.971" transform="translate(-150.496 -141.101)"/><path class="g" d="M1900-1553.661c15.013-52.275,24.955-109.323,29.488-171.282h0a879.729,879.729,0,0,1-19.347,131.971q-4.623,20.073-10.141,39.291h0v.02" transform="translate(-153.837 -141.101)"/><path class="b" d="M2005.227-1847.862c-33.286-48.3-78.781-59.811-98.6-62.555v-.02l.119-.855s.954-31.357,3.539-73.889h0c-2.565,42.552-3.519,73.889-3.519,73.889l-.139.875c19.825,2.744,65.319,14.257,98.605,62.555h0" transform="translate(-150.581 -268.958)"/><path class="d" d="M2005.227-1847.862c-33.286-48.3-78.781-59.812-98.6-62.555l.139-.875s.954-31.338,3.52-73.89c40.285.239,69.475,16.743,90.095,37.621,3.36,55.457,4.812,97.91,4.852,99.7" transform="translate(-150.581 -268.959)"/><path class="d" d="M2005.227-1872.467c-33.306-48.318-78.781-59.811-98.6-62.575v0c19.824,2.744,65.319,14.257,98.6,62.555v.02" transform="translate(-150.581 -244.334)"/><path class="f" d="M937.451-1426.3c-37.191-6.383-75.778-17.5-106.062-55.278-30.952-38.595-48.432-98.923-55.007-189.833-7.308-101.051,11.813-176.829,56.827-225.227,47.05-50.565,104.865-51.142,107.3-51.142l.107,36.249c-1.839.02-45.377.974-81.407,40.186-37.486,40.782-53.19,107.155-46.666,197.33,12.831,177.446,66.934,200.988,131.028,211.964l-6.124,35.752" transform="translate(-706.626 -250.584)"/><path class="f" d="M837.276-1765.458l-36.235-1.193c.03-.934,3.138-93.4,11-184.663,4.643-53.965,10.026-97.094,16-128.172,8.326-43.288,18.693-72.12,42.246-72.12,25.533,0,42.886,27.559,56.01,168.418,7.053,75.678,9.449,152.352,9.475,153.107l-36.241,1.113c-.018-.656-2.1-67.189-8.079-136.842-6.969-81.166-15.144-119.264-20.763-136.941-6.186,20.143-15.462,66.054-23.821,170.108-6.822,84.885-9.558,166.37-9.588,167.185" transform="translate(-693.765 -350.725)"/><path class="f" d="M1658.7-2198.8c-275.514,0-480.881,66.234-610.4,196.872C940.517-1893.2,886.717-1739.238,888.4-1544.274c3.836,444.807,270.2,679.917,770.3,679.917s766.472-235.11,770.309-679.917c1.69-194.964-52.116-348.926-159.908-457.652C2139.6-2132.565,1934.217-2198.8,1658.7-2198.8Zm0,1370.71c-251,0-447.468-57.664-583.944-171.361-145.649-121.333-220.547-304.545-222.614-544.506-1.768-204.985,55.568-367.657,170.411-483.482,136.578-137.777,350.61-207.61,636.148-207.61s499.568,69.833,636.151,207.61c114.85,115.825,172.177,278.5,170.407,483.482-2.068,239.961-76.951,423.173-222.6,544.506C2106.174-885.753,1909.7-828.089,1658.7-828.089" transform="translate(-668.677 -391.72)"/><path class="f" d="M1574.249-1978.359c-254.164,0-513.994,41.438-513.994,348.847,0,171.341,33.668,288.955,105.954,370.122,81.68,91.725,215.15,136.286,408.04,136.286s326.378-44.56,408.042-136.286c72.3-81.167,105.962-198.781,105.962-370.122,0-307.408-259.825-348.847-514-348.847Zm0,891.523c-203.83,0-346.158-48.557-435.114-148.435C1060.583-1323.477,1024-1448.746,1024-1629.513c0-341.331,294.064-385.1,550.249-385.1s550.253,43.765,550.253,385.1c0,180.766-36.587,306.036-115.129,394.242-88.962,99.878-231.292,148.435-435.124,148.435" transform="translate(-584.223 -283.416)"/><path class="f" d="M1904.066-1426.3l-6.124-35.752c64.106-10.976,118.211-34.519,131.036-211.964,6.562-90.612-9.326-157.2-47.205-197.926-36.408-39.132-80.312-39.59-80.769-39.59v-36.248c2.446,0,60.269.576,107.314,51.142,45.018,48.4,64.127,124.176,56.829,225.227-6.581,90.91-24.059,151.239-55,189.833-30.283,37.78-68.878,48.9-106.082,55.278" transform="translate(-154.846 -250.584)"/><path class="f" d="M1993.054-1765.458c-.04-.816-2.764-82.3-9.584-167.186-8.372-104.053-17.638-149.966-23.821-170.108-5.627,17.677-13.819,55.815-20.779,137.081-5.985,69.654-8.053,136.047-8.073,136.7l-36.229-1.113c.02-.756,2.406-77.429,9.464-153.107,13.124-140.859,30.483-168.418,56.014-168.418,23.543,0,33.922,28.832,42.234,72.12,5.985,31.078,11.374,74.207,16.007,128.172,7.854,91.268,10.976,183.729,11,184.664l-36.229,1.193" transform="translate(-156.503 -350.725)"/><path class="f" d="M1474.861-1972.149c-88.385,0-154.945-24.755-197.8-73.571-61.453-69.993-50.144-162.851-49.633-166.768l35.95,4.692c-.1.756-9.517,80.989,41.156,138.433,35.686,40.445,93,60.966,170.327,60.966,77.349,0,134.655-20.521,170.327-60.966,50.684-57.445,41.26-137.677,41.16-138.472l35.95-4.653c.517,3.917,11.832,96.775-49.63,166.768-42.85,48.815-109.4,73.571-197.807,73.571" transform="translate(-484.835 -380.637)"/><path class="f" d="M1129.523-1521.539c-130.116-6.2-143.192-108.05-151.843-175.457-3.014-23.483-6.768-52.713-14.941-57.485-46.881-27.321-101.61-59.891-102.159-60.229l18.546-31.138c.545.318,55.141,32.809,101.876,60.05,23.6,13.76,27.786,46.41,32.636,84.19,8.371,65.2,17.858,139.089,117.612,143.841l-1.728,36.229" transform="translate(-664.512 -200.503)"/><path class="f" d="M1744.765-1521.539l-1.729-36.229c99.738-4.752,109.223-78.641,117.594-143.841,4.852-37.78,9.047-70.43,32.65-84.189,46.727-27.241,101.329-59.732,101.866-60.05l18.551,31.138c-.557.338-55.278,32.908-102.164,60.229-8.172,4.772-11.911,34-14.933,57.485-8.65,67.407-21.733,169.253-151.835,175.457" transform="translate(-230.953 -200.503)"/><path class="d" d="M1543.939-734.782c-.418,0-.815-.02-1.233-.02s-.815.02-1.233.02v-.02c-220.081-.338-273.054-47.225-284.52-79.655-4.488-12.686-.944-51.8-.944-51.8-81.483-19.009-140.781-65.419-169.832-92.5.7-5.289,1.469-10.6,2.324-15.887q2.118-13.72,4.75-27.38c31.013,30.5,86.955,70.41,184.32,97.333v87.49l3.724,4.872c4.46,5.846,49.432,56.709,260.336,57.425v.02h4.613v-.02c210.891-.716,255.868-51.579,260.323-57.425l3.718-4.872v-86.476c96.159-25.989,152.571-64.623,184.644-95.046,1.71,8.471,3.321,16.941,4.772,25.412.7,4.1,1.352,8.172,1.969,12.268-28.1,26.665-88.444,75.222-172.276,94.788,0,0,3.539,39.112-.935,51.8-11.473,32.431-64.444,79.318-284.521,79.655v.02" transform="translate(-553.675 214.077)"/><path class="g" d="M1070.08-1015.381l-1.2-13.163s.346.219,1.008.616c.662,1.034,1.438,2.247,2.331,3.579-.728,2.983-1.44,5.965-2.136,8.968" transform="translate(-562.174 201.048)"/><path class="f" d="M1094.281-947.109a260.879,260.879,0,0,1-20.111-20.56l-4.486-49.094c.7-3,1.407-5.985,2.136-8.968a219.574,219.574,0,0,0,29.536,35.354q-2.625,13.66-4.75,27.38c-.855,5.289-1.628,10.6-2.324,15.887m915.493-2.287c-.616-4.1-1.272-8.172-1.969-12.268-1.452-8.471-3.062-16.941-4.772-25.412a228.872,228.872,0,0,0,29.21-33.246l-4.812,52.653a246.011,246.011,0,0,1-17.657,18.273" transform="translate(-561.778 202.43)"/><path class="o" d="M1397.743-848.465h0" transform="translate(-402.865 289.523)"/><path class="o" d="M1681.881-1017.144s-64.584,22.131-207.729,22.131-203.128-22.131-203.128-22.131l-42.8,11.056V-815.9s38.181,49.929,248.237,50.307c210.056-.378,248.233-50.307,248.233-50.307v-190.191l-42.81-11.056" transform="translate(-483.887 206.649)"/><path class="p" d="M1468.94-836.459c-160.284-.278-215.742-30.065-230.111-40.345v-33.008c21.718,12.468,70.171,31.039,170.9,36.686,13.72,7.238,32.153,12.248,56.908,12.248h1.074c24.219,0,42.393-4.792,56.013-11.771,100.1-4.712,150.9-21.932,175.318-34.638V-876.8c-14.357,10.28-69.833,40.066-230.1,40.345" transform="translate(-478.675 259.383)"/><path class="c" d="M1226.673-1006.088s18.6,44.839,245.932,44.839c227.315,0,250.54-44.839,250.54-44.839l-40.5-11.056s-77.608,22.131-210.036,22.131-203.128-22.131-203.128-22.131l-42.8,11.056" transform="translate(-484.647 206.649)"/><path class="f" d="M1250.774-817.82c14.368,10.28,69.827,40.066,230.111,40.345,160.266-.278,215.742-30.065,230.1-40.345V-985.8l-24.278-6.263c-18.671,5.349-85.064,21.435-208.127,21.435-121.971,0-185.26-15.848-203.686-21.4l-24.118,6.224V-817.82m232.417,76.613h-4.613v-.02c-210.9-.716-255.876-51.579-260.336-57.425l-3.724-4.872v-210.354l61.891-15.987,5.321,1.949c.519.2,59.79,21.017,196.849,21.017,138.513,0,201.247-20.938,201.864-21.157l5.15-1.769,61.641,15.947v210.354l-3.718,4.872c-4.454,5.846-49.432,56.709-260.323,57.425v.02" transform="translate(-490.62 200.4)"/><path class="f" d="M1474.5-840.674h-1.074c-65.319,0-86.675-34.9-93.421-53.409-78.035-2.207-151.785-32.053-155.011-33.365l9.612-23.483c.775.318,78.246,31.6,154.412,31.6h.617l11.433-.02,1.213,11.374c.219,1.571,6.244,41.936,71.145,41.936h1.074c65.876,0,71.105-41.518,71.145-41.936l1.213-11.374,11.433.02h.617c76.335,0,153.644-31.278,154.42-31.6l9.6,23.483c-3.221,1.313-76.971,31.159-155.016,33.365-6.721,18.512-28.1,53.409-93.416,53.409" transform="translate(-485.471 239.18)"/><path class="c" d="M1561.609-939.546s134.735-19.884,206.6-119.2c12.626-17.439,47.006,18.432,29.428,46.33-10.857,17.2-63.311,100.335-236.024,142.768v-69.893" transform="translate(-320.09 183.95)"/><path class="g" d="M1719.876-1022.889h0a.482.482,0,0,1,.08-.139.5.5,0,0,0-.08.139h0m.1-.159c.02-.04.04-.06.04-.1,0,.04-.02.059-.04.1m.079-.139c.02-.04.04-.06.06-.1-.02.04-.04.059-.06.1m.06-.119a.417.417,0,0,0,.079-.119.412.412,0,0,1-.079.119m.1-.159c.02-.02.04-.06.06-.079-.02.02-.04.06-.06.079m.08-.119c.02-.04.04-.06.06-.1-.02.039-.04.059-.06.1m.08-.119.059-.12-.059.12m.079-.139.06-.119-.06.119m.08-.139a.425.425,0,0,1,.06-.1.425.425,0,0,0-.06.1m.06-.139c.06-.079.1-.159.159-.239-.06.08-.1.159-.159.239m.159-.259.06-.119-.06.119m.079-.139c.04-.08.1-.159.14-.258-.04.1-.1.179-.14.258m.159-.279c.02-.04.02-.059.04-.1-.02.04-.02.06-.04.1m.06-.119.06-.119-.06.119m.079-.139.06-.119-.06.119m.06-.139.059-.119-.059.119m.079-.139.06-.119-.06.119m.06-.119c.04-.1.1-.179.139-.258-.04.079-.1.159-.139.258m.139-.278.06-.119-.06.119m.08-.139c.04-.079.08-.179.119-.258-.04.079-.079.179-.119.258m.119-.278.06-.12-.06.12m.06-.12a1.823,1.823,0,0,0,.14-.278,1.823,1.823,0,0,1-.14.278m.14-.278.059-.119-.059.119m.059-.139c.06-.139.119-.258.179-.4-.06.139-.12.258-.179.4m.179-.417.059-.12-.059.12m.059-.12c.04-.1.08-.179.119-.278-.039.1-.079.179-.119.278m.119-.278.06-.12-.06.12m.06-.139c.059-.139.119-.258.179-.4-.06.139-.119.258-.179.4m.179-.417c.04-.12.1-.259.159-.4-.059.139-.119.278-.159.4m.159-.4a3.692,3.692,0,0,1,.159-.418,3.692,3.692,0,0,0-.159.418m.159-.418c.06-.179.119-.358.2-.557-.08.2-.139.378-.2.557m.2-.557a3.112,3.112,0,0,1,.14-.4,3.112,3.112,0,0,0-.14.4m.14-.4a3.4,3.4,0,0,1,.139-.418,3.4,3.4,0,0,0-.139.418m.139-.418c.14-.457.278-.915.4-1.392-.12.477-.258.935-.4,1.392m.4-1.392a31.41,31.41,0,0,0,.855-4.414,31.445,31.445,0,0,1-.855,4.414m.855-4.434q.03-.269.06-.537-.03.269-.06.537m.06-.537c0-.139.019-.278.019-.418,0,.139-.019.279-.019.418m.04-.418c0-.139.02-.279.02-.418,0,.139-.02.278-.02.418m.02-.418a.344.344,0,0,1,.02-.139.344.344,0,0,0-.02.139m.02-.139a1.307,1.307,0,0,1,.02-.279,1.307,1.307,0,0,0-.02.279m.02-.279v0m0-.139a1.047,1.047,0,0,1,.02-.258,1.13,1.13,0,0,0-.02.258m.02-.279v0m0-.139v0m0-.139a.253.253,0,0,1,.02-.119.253.253,0,0,0-.02.119m.02-.139v0m0-.139v0m0-.139v0m0-.119v0m0-.159v0m0-.139v0m0-.119v0m0-.159c0-.04.02-.06.02-.1,0,.04-.02.059-.02.1m.02-.139a.12.12,0,0,0-.02-.08.12.12,0,0,1,.02.08m-.02-.12v0m0-.159v0m0-.139v0m0-.119v0m0-.179v0m0-.119v0m0-.119v0m-.02-.2v0m0-.1v0m0-.119v0m0-.219h0m-.02-.1v0m0-.1v0m-.02-.418v0" transform="translate(-242.332 194.418)"/><path class="d" d="M1561.609-871.035V-893.5c162.214-43.307,212.283-122.625,222.861-139.388,5.727-9.067,5.926-18.989,3.182-27.639a39.119,39.119,0,0,1,14.814,27.579v.02c0,.119.02.258.02.4v.119c0,.04.019.059.019.1h0v.437a.436.436,0,0,1,.02.159v.915a.12.12,0,0,1,.02.079v.04c0,.04-.02.06-.02.1v.577h0v.418a.251.251,0,0,0-.02.12v.3a1.09,1.09,0,0,0-.019.259v.139h0a1.3,1.3,0,0,0-.02.278h0a.333.333,0,0,0-.02.139h0c0,.139-.02.278-.02.417h-.02c0,.139-.019.279-.019.418h0q-.03.269-.06.537v.02a31.433,31.433,0,0,1-.855,4.414h0c-.12.477-.258.935-.4,1.392h0a3.386,3.386,0,0,0-.139.418h0a3.088,3.088,0,0,0-.139.4h0c-.08.2-.139.378-.2.557h0a3.718,3.718,0,0,0-.159.418h0c-.059.139-.119.278-.159.4v.02c-.06.139-.119.258-.179.4v.02l-.06.12h0c-.04.1-.08.179-.119.278h0l-.059.12v.02c-.06.139-.12.258-.179.4v.02l-.059.119h0a1.85,1.85,0,0,1-.139.278h0l-.06.119v.02c-.039.079-.079.179-.119.259a.02.02,0,0,0-.02.02l-.059.119v.02c-.04.08-.1.159-.139.259h0l-.06.12a.019.019,0,0,1-.02.02q-.029.06-.06.119v.02l-.059.119a.02.02,0,0,0-.02.02l-.06.119-.02.02c-.02.04-.02.06-.039.1l-.02.02a2.814,2.814,0,0,1-.139.258c0,.02,0,.02-.02.02l-.06.119v.02c-.059.08-.1.159-.159.239v.04a.435.435,0,0,0-.06.1l-.02.02-.059.119a.02.02,0,0,0-.02.02l-.06.119a.019.019,0,0,0-.019.02c-.02.04-.04.06-.06.1,0,.02-.02.02-.02.04-.02.02-.039.06-.059.079a.069.069,0,0,1-.02.04.407.407,0,0,1-.08.119v.02c-.02.04-.04.06-.059.1-.02.02-.02.04-.04.04,0,.04-.02.06-.04.1a.019.019,0,0,0-.02.02.5.5,0,0,0-.08.139h0c-10.678,16.9-61.482,97.432-227.017,140.481-2.962.776-5.965,1.531-9.007,2.287" transform="translate(-320.09 185.332)"/><path class="f" d="M1583.306-920.01V-884.8c97.134-27.241,169.83-73.094,205.9-130.3,3.52-5.588,2.486-11.394,1.014-15.271a23.449,23.449,0,0,0-6.164-9.067C1721.818-956.676,1620.35-928,1583.306-920.01Zm-32.63,77.19V-947.589l13.9-2.048c1.292-.2,128.948-20.282,195.778-112.643,9.345-12.905,26.108-15.013,40.743-5.11,20.2,13.66,31.317,44.918,15.708,69.694-43.049,68.3-130.4,121.531-245.926,149.906l-20.2,4.971" transform="translate(-325.461 178.91)"/><path class="f" d="M1620.8-921.907l-13.7-4.772c11.473-32.928-11.155-56.073-11.393-56.312l10.26-10.26c1.193,1.213,29.27,29.906,14.833,71.344" transform="translate(-303.339 218.388)"/><path class="f" d="M1668-943.313l-13.7-4.772c11.473-32.928-11.155-56.073-11.393-56.292l10.26-10.26c1.193,1.193,29.269,29.906,14.833,71.324" transform="translate(-280.149 207.88)"/><path class="f" d="M1705.236-970.66l-13.7-4.772c11.473-32.928-11.175-56.053-11.394-56.292l10.24-10.26c1.213,1.213,29.269,29.905,14.854,71.324" transform="translate(-261.853 194.445)"/><path class="c" d="M1306.51-939.546s-134.726-19.884-206.6-119.2c-12.628-17.439-47.006,18.432-29.421,46.33,10.853,17.2,63.309,100.335,236.016,142.768v-69.893" transform="translate(-563.79 183.95)"/><path class="g" d="M1070.408-1024.972h0c-.024-.04-.05-.1-.076-.139.026.039.05.1.076.139h0m-.1-.159c-.022-.04-.04-.06-.06-.1.02.04.038.059.06.1m-.078-.139a.45.45,0,0,1-.074-.1.439.439,0,0,0,.074.1m-.076-.12c-.026-.04-.054-.079-.079-.119.026.04.053.079.079.119m-.087-.139a.426.426,0,0,0-.068-.1.418.418,0,0,1,.068.1m-.082-.139c-.024-.04-.046-.08-.07-.119.024.04.046.079.07.119m-.073-.119a.877.877,0,0,1-.078-.139.845.845,0,0,0,.078.139m-.08-.139-.071-.119.071.119m-.083-.139-.066-.119.066.119m-.074-.119c-.049-.1-.1-.179-.147-.258a2.814,2.814,0,0,1,.147.258m-.155-.278-.066-.119.066.119m-.072-.139c-.05-.079-.1-.179-.147-.258.048.079.1.179.147.258m-.147-.258c-.024-.04-.048-.1-.069-.139.022.04.046.1.069.139m-.073-.139c-.072-.139-.143-.258-.213-.4.069.119.141.258.213.4m-.213-.4a31.871,31.871,0,0,1-2.559-6.721,31.871,31.871,0,0,0,2.559,6.721m-2.563-6.741c-.034-.139-.066-.258-.1-.4.032.139.064.258.1.4m-.1-.417c-.01-.04-.02-.08-.028-.12.008.04.018.08.028.12m-.032-.139c-.02-.08-.042-.159-.059-.258.018.1.04.179.059.258m-.065-.278a.834.834,0,0,0-.024-.1.834.834,0,0,1,.024.1m-.03-.139c-.008-.04-.018-.08-.026-.119.008.04.018.079.026.119m-.028-.119c-.01-.06-.018-.1-.028-.139.008.04.018.1.028.139m-.034-.159c-.006-.04-.014-.059-.02-.1.006.04.014.06.02.1m-.028-.139c-.006-.04-.014-.06-.02-.1.006.04.014.06.02.1m-.026-.12c-.008-.06-.016-.1-.024-.139.008.04.016.079.024.139m-.032-.159c-.006-.04-.012-.059-.018-.1.006.04.014.06.018.1m-.026-.139a.348.348,0,0,0-.016-.08.349.349,0,0,1,.016.08m-.024-.139c-.006-.04-.014-.06-.02-.1.006.04.014.059.02.1m-.03-.159a.612.612,0,0,1-.014-.079c.006.04.01.06.014.079m-.024-.139-.012-.059.012.059m-.022-.119c0-.02-.006-.04-.01-.059,0,.02.006.04.01.059m-.034-.2a.259.259,0,0,1,0-.04c0,.02,0,.04,0,.04m-.018-.1c0-.02,0-.04-.006-.06,0,.02,0,.04.006.06m-.018-.139s0-.02-.006-.02,0,.02.006.02m-.048-.3c0-.02,0-.02,0-.02s0,0,0,.02m-.018-.119s0-.02,0-.02,0,.02,0,.02m-.058-.438h0" transform="translate(-563.704 196.501)"/><path class="d" d="M1306.509-871.035c-3.034-.755-6.035-1.511-9-2.287-165.543-43.049-216.359-123.58-227.021-140.481h0c-.026-.04-.05-.1-.076-.139-.006,0-.014-.02-.02-.02-.022-.04-.04-.06-.06-.1-.006,0-.012-.02-.018-.04a.434.434,0,0,1-.074-.1l0-.02-.079-.12s-.006-.02-.008-.02a.419.419,0,0,0-.068-.1c0-.02-.01-.02-.014-.04-.024-.04-.046-.079-.07-.119h0a.9.9,0,0,1-.078-.139h0l-.072-.119s-.008-.02-.012-.02l-.066-.119h-.008a2.96,2.96,0,0,0-.147-.259c0-.02,0-.02-.008-.02l-.066-.119s0,0-.006-.02c-.05-.079-.1-.179-.147-.259h0c-.024-.04-.048-.1-.07-.139h0c-.072-.139-.143-.279-.213-.4h0a31.876,31.876,0,0,1-2.559-6.721s0-.02,0-.02c-.034-.139-.066-.258-.1-.4,0,0,0-.02,0-.02-.01-.04-.02-.08-.028-.12,0,0,0,0,0-.02-.02-.079-.042-.159-.059-.258,0,0,0-.02-.006-.02a.779.779,0,0,0-.024-.1c0-.02,0-.02-.006-.04-.008-.04-.018-.079-.026-.119h0c-.01-.04-.02-.1-.028-.139,0,0,0-.02-.006-.02-.006-.04-.014-.06-.02-.1,0-.02-.006-.02-.008-.04-.006-.04-.014-.06-.02-.1,0,0,0-.02-.006-.02-.008-.059-.016-.1-.024-.139,0,0,0-.02-.008-.02,0-.04-.012-.06-.018-.1a.316.316,0,0,0-.008-.04.358.358,0,0,0-.016-.079c0-.02-.006-.04-.008-.06-.006-.04-.014-.059-.02-.1a.545.545,0,0,1-.01-.06c0-.02-.008-.04-.014-.079,0-.02-.006-.04-.01-.06l-.012-.059c0-.02-.006-.04-.01-.06s-.006-.04-.01-.059c-.008-.04-.016-.1-.024-.139l0-.04c0-.02-.01-.04-.014-.06s0-.04-.006-.059a.693.693,0,0,1-.012-.079s0-.02-.006-.02c-.014-.1-.028-.2-.042-.278,0-.02,0-.02,0-.02a.714.714,0,0,0-.014-.1s0-.02,0-.02c-.02-.139-.038-.279-.055-.418h0c-1.774-13.78,5.765-27.3,14.625-33.9-2.742,8.65-2.541,18.572,3.181,27.639,10.573,16.762,60.639,96.08,222.855,139.388v22.469" transform="translate(-563.79 185.332)"/><path class="f" d="M1094.8-1039.434a23.184,23.184,0,0,0-6.17,9.087c-1.477,3.877-2.5,9.664,1.02,15.251,36.062,57.207,108.748,103.059,205.9,130.3V-920.01C1258.5-928,1157.042-956.676,1094.8-1039.434Zm233.38,196.614-20.208-4.971C1192.442-876.166,1105.1-929.4,1062.05-997.7c-15.623-24.776-4.494-56.053,15.7-69.694,14.643-9.9,31.4-7.795,40.739,5.11,67.061,92.66,194.484,112.445,195.763,112.624l13.933,2.068V-842.82" transform="translate(-569.146 178.91)"/><path class="f" d="M1177.578-921.907c-14.428-41.438,13.63-70.131,14.836-71.344l10.252,10.26-5.126-5.13,5.148,5.11c-.935.954-22.787,23.662-11.413,56.332l-13.7,4.772" transform="translate(-510.79 218.388)"/><path class="f" d="M1130.378-943.313c-14.428-41.419,13.631-70.131,14.834-71.324l10.274,10.24c-.933.954-22.786,23.662-11.414,56.312l-13.694,4.772" transform="translate(-533.979 207.88)"/><path class="f" d="M1093.142-970.66c-14.428-41.419,13.636-70.111,14.838-71.324l10.276,10.24c-.938.954-22.791,23.662-11.419,56.312l-13.694,4.772" transform="translate(-552.274 194.445)"/><path class="c" d="M2752.05-1982.132c0,176.67-143.245,319.876-319.935,319.876a318.29,318.29,0,0,1-174.383-51.7l-159.709,51.7,52.653-167.7a318.517,318.517,0,0,1-38.436-152.173c0-176.67,143.205-319.875,319.875-319.875,158.875,0,290.706,115.785,315.641,267.6v.04a316.34,316.34,0,0,1,4.295,52.235" transform="translate(-56.545 -424.619)"/><path class="f" d="M2450.437-1650.308a318.288,318.288,0,0,1-174.383-51.7l-159.709,51.7L2169-1818.01a318.519,318.519,0,0,1-38.436-152.173c0-176.67,143.205-319.875,319.875-319.875,158.874,0,290.706,115.785,315.641,267.6v.04a316.4,316.4,0,0,1,4.294,52.235c0,176.671-143.245,319.876-319.935,319.876m351.909-375.034v-.04l-.477-2.963a356.41,356.41,0,0,0-119.782-212.382,356.222,356.222,0,0,0-231.65-85.6c-196.375,0-356.124,159.768-356.124,356.144a357.43,357.43,0,0,0,35.632,155.474l-48.179,153.545-21.037,66.97,66.79-21.614,143.782-46.549a354.546,354.546,0,0,0,179.136,48.318c196.4,0,356.184-159.769,356.184-356.144a355.794,355.794,0,0,0-4.275-55.158" transform="translate(-74.867 -436.568)"/><path class="q" d="M2460.266-2153.62c-66.035-48.318-124.275,34.777-124.275,34.777l-2.824,3.877,3.241,9.625-7.655,19.327-.815,1.989.675,1.134,5.965,10.121-7.635,34-2.028,9.047,13.661,15.292-12.667,31.953,10.44,7.854-12.13,8.113-1.412,36.228c2.009-.417,4.016-.935,6.025-1.471,24.04-6.243,46.648-18.313,66.711-33.783,71.861-55.318,111.052-154.221,64.723-188.084" transform="translate(53.896 -359.133)"/><path class="r" d="M2098.022-1750.43l177.127-127.835s56.809,64.742,162.99,64.742A292.565,292.565,0,0,0,2514-1823.942c214.828-57.564,228.209-225.008,233.757-298.6q2.117,12.557,3.181,25.451,1.1,13.243,1.113,26.784c0,117.316-63.171,219.879-157.323,275.554a318.466,318.466,0,0,1-162.612,44.322,318.326,318.326,0,0,1-142.131-33.246,316.568,316.568,0,0,1-32.252-18.453l-159.709,51.7" transform="translate(-56.545 -336.445)"/><path class="s" d="M2368.873-1758.815a318.327,318.327,0,0,1-142.132-33.246h0a318.327,318.327,0,0,0,142.132,33.246h0m162.613-44.322h0c94.151-55.675,157.323-158.238,157.323-275.554q0-13.541-1.113-26.784,1.1,13.242,1.113,26.784c0,117.316-63.171,219.879-157.323,275.554" transform="translate(6.697 -328.06)"/><path class="q" d="M2377.036-1974.919l-11.055,9.525,3,36.129h-.02c-.2-.02-.417-.079-.6-.1-.259-.06-.477-.119-.735-.179-112.624-24.417-198.145-177.028-138.532-221.609,61.322-45.853,117.018,23.423,123.938,32.511.477.636.716.974.716.974l2.963,3.937.06-.1,4.395,9.147-5.25,20.122.239,3.1,7.158,9.346-3.44,34.658.914,10.817,13.621,11.91-8.709,33.287,11.334,6.521" transform="translate(-1.745 -358.14)"/></g></svg>