<svg xmlns="http://www.w3.org/2000/svg" width="56.699" height="79.812" viewBox="0 0 56.699 79.812"><defs><style>.a{fill:#e49016;}.b{fill:#f4b009;}.c{fill:#fff;}.d{fill:#e6e6e6;}.e{fill:#1a1818;}</style></defs><g transform="translate(-30.591 -14.173)"><g transform="translate(30.591 14.173)"><path class="a" d="M87.29,36.4h-56.7L35.9,94.034l23.037,6.531h0l23.028-6.531Z" transform="translate(-30.591 -20.754)"/><path class="b" d="M70.866,43.066V97.659h0l18.654-5.288,4.543-49.3Z" transform="translate(-42.517 -22.729)"/><path class="c" d="M79.042,53.114H50.349L48.355,74.7l.042-.135H72.77l-.8,9.129L64.2,85.93l-7.893-2.275-.474-5.525H48.668l1.024,11.04L64.2,93.291l14.509-4.12,2-21.666H54.844l.33-7.225H73.124l.264,4.135h7.23Z" transform="translate(-35.851 -25.704)"/><g transform="translate(12.504 27.41)"><path class="d" d="M64.2,53.114H50.349L48.355,74.7l.042-.135H64.2V67.505H55.842l.329-7.225H64.2ZM55.833,78.13H48.668l1.024,11.041L64.2,93.282V85.93l-7.893-2.275Z" transform="translate(-48.355 -53.114)"/></g><g transform="translate(17.79)"><path class="e" d="M60.907,21.314H55.865v3.621H64.52V14.173H60.907Z" transform="translate(-55.865 -14.173)"/><path class="e" d="M82.168,14.251H73.374v3.768c1.175,1.177,1.79,1.74,3.492,3.442-1,0-3.492,0-3.492,0V24.9h8.794V21.464l-3.512-3.445h3.512Z" transform="translate(-61.049 -14.196)"/></g></g></g></svg>