<svg xmlns="http://www.w3.org/2000/svg" width="66.902" height="66.912" viewBox="0 0 66.902 66.912"><g transform="translate(-0.5 -0.325)"><path d="M31.76.343c-.144.013-.6.059-1.014.092A33.531,33.531,0,0,0,6.706,14.3,33.116,33.116,0,0,0,.8,28.915a25.607,25.607,0,0,0-.3,4.872,25.607,25.607,0,0,0,.3,4.872A33.59,33.59,0,0,0,23.684,65.688a35.367,35.367,0,0,0,7.063,1.465,61.619,61.619,0,0,0,6.409,0,33.774,33.774,0,0,0,12.053-3.525c.576-.294.687-.373.608-.438-.052-.039-2.5-3.329-5.448-7.3l-5.35-7.226-6.7-9.921c-3.688-5.454-6.723-9.914-6.749-9.914s-.052,4.4-.065,9.784c-.02,9.424-.026,9.8-.144,10.026a1.188,1.188,0,0,1-.576.6c-.209.1-.392.124-1.38.124H22.271l-.3-.19a1.223,1.223,0,0,1-.438-.477l-.137-.294.013-13.112.02-13.119.2-.255a1.794,1.794,0,0,1,.484-.4c.268-.131.373-.144,1.5-.144,1.334,0,1.556.052,1.9.432.1.1,3.728,5.572,8.07,12.158s10.281,15.578,13.2,19.992l5.3,8.024.268-.177a34.34,34.34,0,0,0,6.873-6.03,33.3,33.3,0,0,0,7.874-17.1,25.607,25.607,0,0,0,.3-4.872,25.607,25.607,0,0,0-.3-4.872A33.59,33.59,0,0,0,44.219,1.886,35.12,35.12,0,0,0,37.254.428C36.626.362,32.3.29,31.76.343ZM45.455,20.577a1.32,1.32,0,0,1,.661.772c.052.17.065,3.806.052,12l-.02,11.759-2.073-3.178L42,38.751V30.2c0-5.526.026-8.633.065-8.783a1.334,1.334,0,0,1,.647-.824c.268-.137.366-.15,1.393-.15.968,0,1.138.013,1.354.131Z" transform="translate(0)"/><path d="M758.83,943.137c-.229.144-.3.242-.1.131.144-.085.379-.262.34-.268A1.351,1.351,0,0,0,758.83,943.137Zm-.451.294c-.118.092-.118.1.026.026a.4.4,0,0,0,.144-.1C758.549,943.307,758.516,943.32,758.379,943.432Zm-.327.2c-.118.091-.118.1.026.026a.4.4,0,0,0,.144-.1C758.222,943.5,758.189,943.517,758.052,943.628Zm-.327.2c-.118.092-.118.1.026.026a.4.4,0,0,0,.144-.1C757.9,943.7,757.862,943.713,757.725,943.824Zm-.5.262c-.249.131-.235.183.013.059a.681.681,0,0,0,.2-.131C757.437,943.968,757.431,943.974,757.228,944.086Z" transform="translate(-707.071 -881.026)"/></g></svg>