<svg xmlns="http://www.w3.org/2000/svg" width="59.128" height="66.626" viewBox="0 0 59.128 66.626"><defs><style>.a{fill:#539e43;}</style></defs><path class="a" d="M29.564,66.626a5.367,5.367,0,0,1-2.571-.673l-8.141-4.836c-1.224-.673-.612-.918-.245-1.041a14.822,14.822,0,0,0,3.673-1.653.563.563,0,0,1,.612.061l6.243,3.734a.778.778,0,0,0,.734,0L54.293,48.08a.7.7,0,0,0,.367-.673V19.189a.7.7,0,0,0-.367-.673L29.87,4.438a.778.778,0,0,0-.734,0L4.713,18.516a.768.768,0,0,0-.367.673V47.407a.768.768,0,0,0,.367.673l6.672,3.856c3.611,1.836,5.876-.306,5.876-2.448V21.637A.744.744,0,0,1,18,20.9h3.122a.744.744,0,0,1,.735.735v27.85c0,4.836-2.632,7.651-7.223,7.651-1.408,0-2.51,0-5.631-1.53L2.571,51.936A5.166,5.166,0,0,1,0,47.468V19.25a5.166,5.166,0,0,1,2.571-4.468L26.993.643a5.463,5.463,0,0,1,5.141,0L56.557,14.782a5.166,5.166,0,0,1,2.571,4.468V47.468a5.166,5.166,0,0,1-2.571,4.468L32.135,66.075a6.264,6.264,0,0,1-2.571.551Zm7.529-19.4c-10.712,0-12.915-4.9-12.915-9.059a.744.744,0,0,1,.734-.734H28.1a.629.629,0,0,1,.673.612c.49,3.244,1.9,4.836,8.386,4.836,5.142,0,7.345-1.163,7.345-3.917,0-1.591-.612-2.754-8.631-3.55-6.672-.673-10.834-2.142-10.834-7.467,0-4.958,4.162-7.9,11.14-7.9,7.835,0,11.691,2.693,12.181,8.569a.987.987,0,0,1-.184.551.756.756,0,0,1-.49.245H44.5a.717.717,0,0,1-.674-.551c-.734-3.366-2.632-4.468-7.651-4.468-5.631,0-6.3,1.959-6.3,3.428,0,1.775.8,2.326,8.386,3.305,7.529.979,11.079,2.387,11.079,7.651-.061,5.386-4.468,8.447-12.242,8.447Z" transform="translate(0)"/></svg>