<svg xmlns="http://www.w3.org/2000/svg" width="63.87" height="63.87" viewBox="0 0 63.87 63.87"><defs><style>.a{fill:#5adafd;}.b{fill:#f2f2f2;}</style></defs><path class="a" d="M63.87,31.935A31.935,31.935,0,1,1,31.935,0,31.891,31.891,0,0,1,63.87,31.935Z"/><g transform="translate(0.941 8.478)"><path class="b" d="M139.245,109.4c-.15-1-.348-2.04-.593-3.1q-.325-1.394-.753-2.839a61.935,61.935,0,0,0-2.939-7.805q-.788-1.74-1.695-3.489-.8-1.539-1.683-3.074T129.761,86.1q-1.058-1.656-2.174-3.21a61.64,61.64,0,0,0-5.29-6.45q-1.034-1.093-2.082-2.07-1.191-1.114-2.388-2.065c-5.2-4.128-9.854-5.368-13.109-3.489s-4.509,6.53-3.534,13.1c.149,1,.348,2.04.594,3.1q.321,1.394.752,2.839a61.66,61.66,0,0,0,2.941,7.805q.786,1.74,1.693,3.488.8,1.541,1.683,3.075t1.821,2.994q1.06,1.658,2.174,3.212a61.605,61.605,0,0,0,5.29,6.448q1.034,1.093,2.083,2.071,1.191,1.115,2.387,2.063a23.851,23.851,0,0,0,5.472,3.37,31.8,31.8,0,0,0,11.138-5.287A21.8,21.8,0,0,0,139.245,109.4Zm-2.928,7.217a4.166,4.166,0,0,1-6,3.466,18.942,18.942,0,0,1-5.889-3.373q-1.064-.845-2.13-1.834-1.044-.97-2.083-2.069c-1.186-1.255-2.359-2.629-3.5-4.1q-1.146-1.476-2.25-3.08c-1.065-1.547-2.093-3.177-3.071-4.871s-1.876-3.4-2.683-5.1q-.837-1.754-1.542-3.488c-.705-1.728-1.309-3.432-1.8-5.086-.287-.965-.538-1.911-.748-2.838-.216-.944-.392-1.867-.525-2.762a18.929,18.929,0,0,1,.023-6.786,4.892,4.892,0,0,1,2.074-3.338,3.726,3.726,0,0,1,1.891-.467,7.009,7.009,0,0,1,2.036.34A18.934,18.934,0,0,1,116,74.6q1.064.845,2.13,1.837,1.046.968,2.082,2.066c1.187,1.255,2.361,2.629,3.506,4.1q1.146,1.476,2.25,3.08c1.064,1.547,2.092,3.177,3.07,4.87s1.876,3.4,2.683,5.1q.837,1.756,1.542,3.489c.705,1.728,1.309,3.431,1.8,5.085q.43,1.447.749,2.838c.215.944.391,1.867.524,2.762A18.92,18.92,0,0,1,136.317,116.617Z" transform="translate(-89.221 -67.961)"/><path class="b" d="M59.954,188.277q-1.418-.559-2.981-1.036-1.369-.417-2.835-.768a61.7,61.7,0,0,0-8.229-1.356c-1.266-.126-2.557-.219-3.866-.278-1.155-.053-2.325-.081-3.505-.081s-2.35.027-3.506.081c-1.31.059-2.6.153-3.867.278a61.677,61.677,0,0,0-8.228,1.356q-1.464.35-2.835.768-1.56.475-2.981,1.036c-6.174,2.437-9.577,5.85-9.577,9.608s3.4,7.17,9.577,9.609q1.418.559,2.98,1.036,1.369.417,2.835.766a61.677,61.677,0,0,0,8.23,1.357c1.266.125,2.557.218,3.867.278,1.155.053,2.325.079,3.505.079s2.349-.026,3.5-.079q1.965-.09,3.867-.278a61.51,61.51,0,0,0,8.23-1.357q1.464-.35,2.835-.768c1.039-.317,2.035-.662,2.98-1.035,6.176-2.439,9.577-5.851,9.577-9.609S66.13,190.715,59.954,188.277Zm4.786,13.072a18.914,18.914,0,0,1-5.864,3.414q-1.265.5-2.655.927-1.363.42-2.831.769c-1.68.4-3.457.729-5.306.983q-1.85.256-3.791.408c-1.873.15-3.8.226-5.755.226s-3.882-.076-5.755-.224c-1.292-.1-2.559-.239-3.792-.409-1.85-.254-3.626-.583-5.306-.983q-1.466-.348-2.831-.769-1.388-.426-2.655-.927a18.916,18.916,0,0,1-5.864-3.414,4.163,4.163,0,0,1,0-6.929,18.914,18.914,0,0,1,5.864-3.414q1.265-.5,2.655-.927,1.363-.42,2.831-.769c1.68-.4,3.457-.729,5.306-.983,1.233-.171,2.5-.308,3.792-.409,1.873-.149,3.8-.224,5.755-.224s3.882.076,5.755.226q1.938.151,3.791.408c1.85.254,3.626.583,5.306.983q1.466.348,2.831.769,1.388.426,2.655.927a18.915,18.915,0,0,1,5.864,3.414,4.163,4.163,0,0,1,0,6.929Z" transform="translate(-7.544 -170.189)"/><path class="b" d="M135.711,68.816c-3.255-1.878-7.909-.639-13.109,3.489q-1.193.948-2.387,2.065-1.046.976-2.083,2.071a61.77,61.77,0,0,0-5.291,6.448q-1.112,1.552-2.173,3.21-.937,1.46-1.821,2.994t-1.683,3.075q-.905,1.746-1.693,3.488a61.738,61.738,0,0,0-2.941,7.805q-.43,1.445-.753,2.84-.368,1.588-.593,3.1a21.784,21.784,0,0,0,.033,7.691,31.782,31.782,0,0,0,11.138,5.288,23.848,23.848,0,0,0,5.472-3.37q1.195-.948,2.388-2.063,1.046-.976,2.082-2.07a61.8,61.8,0,0,0,5.29-6.45q1.112-1.553,2.174-3.212.937-1.46,1.821-2.994t1.683-3.074q.905-1.746,1.695-3.489a61.849,61.849,0,0,0,2.939-7.805q.428-1.443.752-2.839c.246-1.058.444-2.093.594-3.1C140.22,75.346,138.966,70.7,135.711,68.816Zm-.644,18.267c-.494,1.654-1.1,3.356-1.8,5.085q-.7,1.73-1.542,3.489c-.807,1.7-1.7,3.4-2.683,5.1s-2.006,3.322-3.07,4.87q-1.1,1.6-2.251,3.081c-1.144,1.474-2.318,2.848-3.505,4.1q-1.034,1.095-2.082,2.067-1.064.989-2.13,1.835a18.944,18.944,0,0,1-5.889,3.373,4.166,4.166,0,0,1-6-3.466,18.926,18.926,0,0,1-.023-6.786c.133-.9.309-1.818.524-2.762q.317-1.39.749-2.838c.494-1.654,1.1-3.358,1.8-5.086q.7-1.73,1.542-3.488c.807-1.7,1.7-3.4,2.683-5.1s2.006-3.324,3.071-4.871q1.1-1.6,2.248-3.079c1.146-1.476,2.319-2.849,3.505-4.1q1.036-1.1,2.083-2.067,1.066-.989,2.13-1.835a18.94,18.94,0,0,1,5.889-3.372,7.009,7.009,0,0,1,2.036-.34,3.723,3.723,0,0,1,1.891.467,4.888,4.888,0,0,1,2.074,3.338,18.925,18.925,0,0,1,.023,6.786c-.133.9-.309,1.818-.525,2.762C135.606,85.172,135.354,86.118,135.068,87.083Z" transform="translate(-89.222 -67.961)"/><ellipse class="b" cx="5.825" cy="5.825" rx="5.825" ry="5.825" transform="translate(25.169 21.871)"/></g></svg>