<svg xmlns="http://www.w3.org/2000/svg" xmlns:xlink="http://www.w3.org/1999/xlink" viewBox="0 0 639.73 1092.38"><defs><style>.cls-1{isolation:isolate;}.cls-13,.cls-14,.cls-15,.cls-18,.cls-19,.cls-2,.cls-22,.cls-23,.cls-24,.cls-27,.cls-28,.cls-29,.cls-32,.cls-33,.cls-34,.cls-37,.cls-38,.cls-39,.cls-42,.cls-43,.cls-44,.cls-47,.cls-48,.cls-49,.cls-52,.cls-55,.cls-56,.cls-57,.cls-7,.cls-8,.cls-9{opacity:0.5;}.cls-10,.cls-11,.cls-13,.cls-14,.cls-15,.cls-16,.cls-17,.cls-18,.cls-19,.cls-2,.cls-20,.cls-21,.cls-22,.cls-23,.cls-24,.cls-25,.cls-26,.cls-27,.cls-28,.cls-29,.cls-30,.cls-31,.cls-32,.cls-33,.cls-34,.cls-35,.cls-36,.cls-37,.cls-38,.cls-39,.cls-40,.cls-41,.cls-42,.cls-43,.cls-44,.cls-45,.cls-46,.cls-47,.cls-48,.cls-49,.cls-50,.cls-51,.cls-52,.cls-53,.cls-55,.cls-56,.cls-57,.cls-58,.cls-59,.cls-7,.cls-8,.cls-9{mix-blend-mode:screen;}.cls-2{fill:url(#radial-gradient);}.cls-12,.cls-3{fill:#fff;}.cls-4{fill:#e10d7b;}.cls-5{fill:#e6392e;}.cls-12,.cls-54,.cls-6{opacity:0.6;}.cls-7{fill:url(#radial-gradient-2);}.cls-8{fill:url(#radial-gradient-3);}.cls-9{fill:url(#radial-gradient-4);}.cls-10{fill:url(#radial-gradient-5);}.cls-11{fill:url(#radial-gradient-6);}.cls-13{fill:url(#radial-gradient-7);}.cls-14{fill:url(#radial-gradient-8);}.cls-15{fill:url(#radial-gradient-9);}.cls-16{fill:url(#radial-gradient-10);}.cls-17{fill:url(#radial-gradient-11);}.cls-18{fill:url(#radial-gradient-12);}.cls-19{fill:url(#radial-gradient-13);}.cls-20{fill:url(#radial-gradient-14);}.cls-21{fill:url(#radial-gradient-15);}.cls-22{fill:url(#radial-gradient-16);}.cls-23{fill:url(#radial-gradient-17);}.cls-24{fill:url(#radial-gradient-18);}.cls-25{fill:url(#radial-gradient-19);}.cls-26{fill:url(#radial-gradient-20);}.cls-27{fill:url(#radial-gradient-21);}.cls-28{fill:url(#radial-gradient-22);}.cls-29{fill:url(#radial-gradient-23);}.cls-30{fill:url(#radial-gradient-24);}.cls-31{fill:url(#radial-gradient-25);}.cls-32{fill:url(#radial-gradient-26);}.cls-33{fill:url(#radial-gradient-27);}.cls-34{fill:url(#radial-gradient-28);}.cls-35{fill:url(#radial-gradient-29);}.cls-36{fill:url(#radial-gradient-30);}.cls-37{fill:url(#radial-gradient-31);}.cls-38{fill:url(#radial-gradient-32);}.cls-39{fill:url(#radial-gradient-33);}.cls-40{fill:url(#radial-gradient-34);}.cls-41{fill:url(#radial-gradient-35);}.cls-42{fill:url(#radial-gradient-36);}.cls-43{fill:url(#radial-gradient-37);}.cls-44{fill:url(#radial-gradient-38);}.cls-45{fill:url(#radial-gradient-39);}.cls-46{fill:url(#radial-gradient-40);}.cls-47{fill:url(#radial-gradient-41);}.cls-48{fill:url(#radial-gradient-42);}.cls-49{fill:url(#radial-gradient-43);}.cls-50{fill:url(#radial-gradient-44);}.cls-51{fill:url(#radial-gradient-45);}.cls-52,.cls-53,.cls-54{fill:#e55425;}.cls-55{fill:url(#radial-gradient-46);}.cls-56{fill:url(#radial-gradient-47);}.cls-57{fill:url(#radial-gradient-48);}.cls-58{fill:url(#radial-gradient-49);}.cls-59{fill:url(#radial-gradient-50);}</style><radialGradient id="radial-gradient" cx="-83.72" cy="1169.39" r="442.75" gradientTransform="matrix(0.78, -0.63, 0.63, 0.78, -260.47, 355.28)" gradientUnits="userSpaceOnUse"><stop offset="0.06" stop-color="#1f264d"/><stop offset="0.89" stop-color="#017ab4"/></radialGradient><radialGradient id="radial-gradient-2" cx="-59.81" cy="497.53" r="217.55" gradientTransform="translate(703.41 536.18) rotate(146.13)" gradientUnits="userSpaceOnUse"><stop offset="0.06" stop-color="#1f264d"/><stop offset="0.89" stop-color="#057ab2"/></radialGradient><radialGradient id="radial-gradient-3" cx="30.01" cy="458.46" r="217.55" xlink:href="#radial-gradient-2"/><radialGradient id="radial-gradient-4" cx="30.01" cy="458.46" r="217.55" xlink:href="#radial-gradient-2"/><radialGradient id="radial-gradient-5" cx="320.52" cy="1116.23" r="17.79" gradientTransform="translate(-597.93 61.07) rotate(-66.78)" xlink:href="#radial-gradient-2"/><radialGradient id="radial-gradient-6" cx="236.8" cy="1128.52" r="17.73" gradientTransform="translate(-597.93 61.07) rotate(-66.78)" xlink:href="#radial-gradient-2"/><radialGradient id="radial-gradient-7" cx="-1605.01" cy="552.04" r="217.54" gradientTransform="translate(-664 -610.74) rotate(-125.97)" xlink:href="#radial-gradient-2"/><radialGradient id="radial-gradient-8" cx="-1515.2" cy="512.97" r="217.55" gradientTransform="translate(-664 -610.74) rotate(-125.97)" xlink:href="#radial-gradient-2"/><radialGradient id="radial-gradient-9" cx="-1515.19" cy="512.97" r="217.54" gradientTransform="translate(-664 -610.74) rotate(-125.97)" xlink:href="#radial-gradient-2"/><radialGradient id="radial-gradient-10" cx="1647.14" cy="1910.24" r="17.79" gradientTransform="translate(-236.71 -1928.48) rotate(21.11)" xlink:href="#radial-gradient-2"/><radialGradient id="radial-gradient-11" cx="1563.43" cy="1922.53" r="17.73" gradientTransform="translate(-236.71 -1928.48) rotate(21.11)" xlink:href="#radial-gradient-2"/><radialGradient id="radial-gradient-12" cx="-885.69" cy="2235.97" r="217.56" gradientTransform="translate(-232.68 -1834.56) rotate(-33.87)" xlink:href="#radial-gradient-2"/><radialGradient id="radial-gradient-13" cx="-885.69" cy="2235.97" r="217.56" gradientTransform="translate(-232.68 -1834.56) rotate(-33.87)" xlink:href="#radial-gradient-2"/><radialGradient id="radial-gradient-14" cx="-92.65" cy="850.02" r="17.79" gradientTransform="translate(-597.93 61.07) rotate(-66.78)" xlink:href="#radial-gradient-2"/><radialGradient id="radial-gradient-15" cx="-8.94" cy="837.73" r="17.73" gradientTransform="translate(-597.93 61.07) rotate(-66.78)" xlink:href="#radial-gradient-2"/><radialGradient id="radial-gradient-16" cx="68.92" cy="1605.42" r="217.56" gradientTransform="matrix(0.17, 0.99, 0.99, -0.17, -1140.09, 280.83)" xlink:href="#radial-gradient-2"/><radialGradient id="radial-gradient-17" cx="158.74" cy="1566.35" r="217.56" gradientTransform="matrix(0.17, 0.99, 0.99, -0.17, -1140.09, 280.83)" xlink:href="#radial-gradient-2"/><radialGradient id="radial-gradient-18" cx="158.74" cy="1566.35" r="217.55" gradientTransform="matrix(0.17, 0.99, 0.99, -0.17, -1140.09, 280.83)" xlink:href="#radial-gradient-2"/><radialGradient id="radial-gradient-19" cx="310.42" cy="855.42" r="11.7" gradientTransform="translate(-597.93 61.07) rotate(-66.78)" xlink:href="#radial-gradient-2"/><radialGradient id="radial-gradient-20" cx="238.69" cy="843.13" r="17.73" gradientTransform="translate(-597.93 61.07) rotate(-66.78)" xlink:href="#radial-gradient-2"/><radialGradient id="radial-gradient-21" cx="2095.21" cy="-918.46" r="217.56" gradientTransform="matrix(0.58, -0.82, -0.82, -0.58, -1732.46, 1618.15)" xlink:href="#radial-gradient-2"/><radialGradient id="radial-gradient-22" cx="2185.03" cy="-957.53" r="217.56" gradientTransform="matrix(0.58, -0.82, -0.82, -0.58, -1732.46, 1618.15)" xlink:href="#radial-gradient-2"/><radialGradient id="radial-gradient-23" cx="2185.03" cy="-957.53" r="217.55" gradientTransform="matrix(0.58, -0.82, -0.82, -0.58, -1732.46, 1618.15)" xlink:href="#radial-gradient-2"/><radialGradient id="radial-gradient-24" cx="-2762.12" cy="-162.29" r="11.7" gradientTransform="matrix(-0.93, 0.37, -0.37, -0.93, -2270.82, 1389.29)" xlink:href="#radial-gradient-2"/><radialGradient id="radial-gradient-25" cx="-2833.85" cy="-174.58" r="17.73" gradientTransform="matrix(-0.93, 0.37, -0.37, -0.93, -2270.82, 1389.29)" xlink:href="#radial-gradient-2"/><radialGradient id="radial-gradient-26" cx="895.62" cy="1472.37" r="217.56" gradientTransform="matrix(0.17, 0.99, 0.99, -0.17, -1140.09, 280.83)" xlink:href="#radial-gradient-2"/><radialGradient id="radial-gradient-27" cx="1000.99" cy="1394.75" r="217.56" gradientTransform="matrix(0.17, 0.99, 0.99, -0.17, -1140.09, 280.83)" xlink:href="#radial-gradient-2"/><radialGradient id="radial-gradient-28" cx="1013.25" cy="1472.03" r="217.55" gradientTransform="matrix(0.17, 0.99, 0.99, -0.17, -1140.09, 280.83)" xlink:href="#radial-gradient-2"/><radialGradient id="radial-gradient-29" cx="-458.18" cy="1240.58" r="11.7" gradientTransform="translate(-597.93 61.07) rotate(-66.78)" xlink:href="#radial-gradient-2"/><radialGradient id="radial-gradient-30" cx="-529.91" cy="1228.29" r="17.73" gradientTransform="translate(-597.93 61.07) rotate(-66.78)" xlink:href="#radial-gradient-2"/><radialGradient id="radial-gradient-31" cx="893.48" cy="1710.15" r="217.56" gradientTransform="matrix(0.17, 0.99, 0.99, -0.17, -1140.09, 280.83)" xlink:href="#radial-gradient-2"/><radialGradient id="radial-gradient-32" cx="998.84" cy="1632.53" r="217.56" gradientTransform="matrix(0.17, 0.99, 0.99, -0.17, -1140.09, 280.83)" xlink:href="#radial-gradient-2"/><radialGradient id="radial-gradient-33" cx="1011.1" cy="1709.82" r="217.55" gradientTransform="matrix(0.17, 0.99, 0.99, -0.17, -1140.09, 280.83)" xlink:href="#radial-gradient-2"/><radialGradient id="radial-gradient-34" cx="-327.17" cy="1439.04" r="11.7" gradientTransform="translate(-597.93 61.07) rotate(-66.78)" xlink:href="#radial-gradient-2"/><radialGradient id="radial-gradient-35" cx="-398.9" cy="1426.74" r="17.73" gradientTransform="translate(-597.93 61.07) rotate(-66.78)" xlink:href="#radial-gradient-2"/><radialGradient id="radial-gradient-36" cx="1939.75" cy="1338.76" r="217.56" gradientTransform="matrix(0.77, 0.63, 0.63, -0.77, -1627.61, 622.93)" xlink:href="#radial-gradient-2"/><radialGradient id="radial-gradient-37" cx="2057.59" cy="1277.3" r="217.56" gradientTransform="matrix(0.77, 0.63, 0.63, -0.77, -1627.61, 622.93)" xlink:href="#radial-gradient-2"/><radialGradient id="radial-gradient-38" cx="2069.84" cy="1354.59" r="217.55" gradientTransform="matrix(0.77, 0.63, 0.63, -0.77, -1627.61, 622.93)" xlink:href="#radial-gradient-2"/><radialGradient id="radial-gradient-39" cx="-1409.01" cy="1716.15" r="11.7" gradientTransform="translate(-1361.59 101.91) rotate(-107.67)" xlink:href="#radial-gradient-2"/><radialGradient id="radial-gradient-40" cx="-1511.09" cy="1667.1" r="38.07" gradientTransform="translate(-1361.59 101.91) rotate(-107.67)" xlink:href="#radial-gradient-2"/><radialGradient id="radial-gradient-41" cx="582.99" cy="1064.67" r="217.56" gradientTransform="matrix(0.49, 0.87, -0.87, 0.49, 1025.31, -858.76)" xlink:href="#radial-gradient-2"/><radialGradient id="radial-gradient-42" cx="672.82" cy="1025.6" r="217.57" gradientTransform="matrix(0.49, 0.87, -0.87, 0.49, 1025.31, -858.76)" xlink:href="#radial-gradient-2"/><radialGradient id="radial-gradient-43" cx="672.82" cy="1025.6" r="217.57" gradientTransform="matrix(0.49, 0.87, -0.87, 0.49, 1025.31, -858.76)" xlink:href="#radial-gradient-2"/><radialGradient id="radial-gradient-44" cx="396.51" cy="1026.83" r="17.75" gradientTransform="translate(-597.93 61.07) rotate(-66.78)" xlink:href="#radial-gradient-2"/><radialGradient id="radial-gradient-45" cx="404.22" cy="1109.95" r="17.79" gradientTransform="translate(-597.93 61.07) rotate(-66.78)" xlink:href="#radial-gradient-2"/><radialGradient id="radial-gradient-46" cx="847.59" cy="1399.56" r="217.54" gradientTransform="translate(1134.72 -687.64) rotate(54.03)" xlink:href="#radial-gradient-2"/><radialGradient id="radial-gradient-47" cx="937.41" cy="1360.49" r="217.55" gradientTransform="translate(1134.72 -687.64) rotate(54.03)" xlink:href="#radial-gradient-2"/><radialGradient id="radial-gradient-48" cx="937.41" cy="1360.49" r="217.54" gradientTransform="translate(1134.72 -687.64) rotate(54.03)" xlink:href="#radial-gradient-2"/><radialGradient id="radial-gradient-49" cx="-145.91" cy="1258.18" r="17.78" gradientTransform="translate(-597.93 61.07) rotate(-66.78)" xlink:href="#radial-gradient-2"/><radialGradient id="radial-gradient-50" cx="-129.49" cy="1463.72" r="17.67" gradientTransform="translate(-597.93 61.07) rotate(-66.78)" xlink:href="#radial-gradient-2"/></defs><title>Estrellas</title><g class="cls-1"><g id="Layer_2" data-name="Layer 2"><path class="cls-2" d="M471.33,1146.47a5.66,5.66,0,1,0-8-.84A5.66,5.66,0,0,0,471.33,1146.47Z" transform="translate(-92.88 -55.35)"/><path class="cls-3" d="M92.88,231.26s9.51,0,12.41-1.19,9.81-7.69,9.81-7.69,0,9.51,1.18,12.41,7.7,9.81,7.7,9.81-9.52,0-12.41,1.18-9.81,7.7-9.81,7.7,0-9.52-1.19-12.41S92.88,231.26,92.88,231.26Z" transform="translate(-92.88 -55.35)"/><path class="cls-4" d="M139.31,982.53a1.88,1.88,0,1,1-2.6.6A1.89,1.89,0,0,1,139.31,982.53Zm-21.41-31a3.77,3.77,0,1,0,5.18-1.22A3.75,3.75,0,0,0,117.9,951.52Zm42.4,17.42a7.53,7.53,0,1,0,10.37-2.44A7.52,7.52,0,0,0,160.3,968.94Zm-27,60.14a3.77,3.77,0,1,0,5.19-1.22A3.77,3.77,0,0,0,133.35,1029.08Z" transform="translate(-92.88 -55.35)"/><path class="cls-5" d="M681.37,1073.09a3.76,3.76,0,1,0-3.6-3.93A3.75,3.75,0,0,0,681.37,1073.09Zm-5.51-45.5a7.54,7.54,0,1,0-7.19-7.87A7.55,7.55,0,0,0,675.86,1027.59Z" transform="translate(-92.88 -55.35)"/><path class="cls-5" d="M345.57,695.2a1.88,1.88,0,1,1,2.56-.74A1.88,1.88,0,0,1,345.57,695.2Zm23,29.87a3.77,3.77,0,1,0-5.12,1.49A3.75,3.75,0,0,0,368.54,725.07ZM325.3,709.85a7.54,7.54,0,1,0-10.23,3A7.53,7.53,0,0,0,325.3,709.85Zm23.83-61.44a3.77,3.77,0,1,0-5.12,1.48A3.77,3.77,0,0,0,349.13,648.41Z" transform="translate(-92.88 -55.35)"/><g class="cls-6"><path class="cls-7" d="M478.09,217.78a9.2,9.2,0,0,1,.19,2,9.5,9.5,0,0,1-.94,1.81,9.35,9.35,0,0,1,2-.18,9,9,0,0,1,1.81.94,9.91,9.91,0,0,1-.19-2,9.4,9.4,0,0,1,.95-1.81,9.31,9.31,0,0,1-2,.19A9.5,9.5,0,0,1,478.09,217.78Z" transform="translate(-92.88 -55.35)"/><path class="cls-8" d="M521.61,133.62a9.35,9.35,0,0,1,.18,2,9,9,0,0,1-.94,1.81,9.38,9.38,0,0,1,2-.18,9,9,0,0,1,1.81.94,9.24,9.24,0,0,1-.19-2,9.5,9.5,0,0,1,.94-1.81,9.2,9.2,0,0,1-2,.19A9.5,9.5,0,0,1,521.61,133.62Z" transform="translate(-92.88 -55.35)"/><path class="cls-9" d="M564.74,255.54a9.2,9.2,0,0,1,.19,2,9.5,9.5,0,0,1-.94,1.81,9.35,9.35,0,0,1,2-.18,9.5,9.5,0,0,1,1.81.94,9.35,9.35,0,0,1-.18-2,9,9,0,0,1,.94-1.81,9.38,9.38,0,0,1-2,.18A9.5,9.5,0,0,1,564.74,255.54Z" transform="translate(-92.88 -55.35)"/><path class="cls-10" d="M555.5,212.19a.93.93,0,1,1,1.28.25A.93.93,0,0,1,555.5,212.19Zm3.31,18.22a1.85,1.85,0,1,0-2.57-.51A1.85,1.85,0,0,0,558.81,230.41ZM543.35,214a3.7,3.7,0,1,0-5.14-1A3.69,3.69,0,0,0,543.35,214Zm24.24-21.47a1.85,1.85,0,1,0-2.57-.5A1.85,1.85,0,0,0,567.59,192.55Z" transform="translate(-92.88 -55.35)"/><path class="cls-11" d="M532.22,282.62a.92.92,0,1,1-1.44,1.16.93.93,0,0,1,.14-1.31A.92.92,0,0,1,532.22,282.62Zm-4.84-17.88a1.85,1.85,0,1,0,2.6.29A1.86,1.86,0,0,0,527.38,264.74Zm16.79,15a3.7,3.7,0,1,0,5.2.57A3.69,3.69,0,0,0,544.17,279.76Zm-22.33,23.45a1.85,1.85,0,1,0,2.6.28A1.85,1.85,0,0,0,521.84,303.21Z" transform="translate(-92.88 -55.35)"/></g><path class="cls-12" d="M638.43,94.15s3.7,3.92,4.36,5.56.67,7,.67,7,3.91-3.7,5.55-4.35,7-.67,7-.67-3.7-3.92-4.36-5.56-.67-7-.67-7-3.91,3.7-5.55,4.35S638.43,94.15,638.43,94.15Z" transform="translate(-92.88 -55.35)"/><path class="cls-12" d="M598.2,233.75s-3.94-2.53-5.44-2.82-6.1.55-6.1.55,2.53-3.93,2.82-5.44-.55-6.1-.55-6.1,3.93,2.53,5.44,2.83,6.1-.56,6.1-.56-2.53,3.94-2.83,5.44S598.2,233.75,598.2,233.75Z" transform="translate(-92.88 -55.35)"/><g class="cls-6"><path class="cls-13" d="M597.71,371.09a3.61,3.61,0,0,1-3.87-.62,3.64,3.64,0,0,1-.61,3.87,3.6,3.6,0,0,1,3.86.62,3.61,3.61,0,0,1,.62-3.87Z" transform="translate(-92.88 -55.35)"/><path class="cls-14" d="M683.41,411.49a3.64,3.64,0,0,1-3.87-.61,9.38,9.38,0,0,1,.26,2,9.24,9.24,0,0,1-.88,1.85,3.64,3.64,0,0,1,3.87.61,9.38,9.38,0,0,1-.26-2A9.24,9.24,0,0,1,683.41,411.49Z" transform="translate(-92.88 -55.35)"/><path class="cls-15" d="M563.15,459.07a3.61,3.61,0,0,1-3.87-.62,3.61,3.61,0,0,1-.62,3.87,3.61,3.61,0,0,1,3.87.62,9.49,9.49,0,0,1-.26-2A9.38,9.38,0,0,1,563.15,459.07Z" transform="translate(-92.88 -55.35)"/><path class="cls-16" d="M606.13,448.24a.93.93,0,0,1,1.09,1.5.93.93,0,1,1-1.09-1.5Zm-18.09,4a1.85,1.85,0,1,0,.41-2.58A1.86,1.86,0,0,0,588,452.21Zm15.81-16a3.71,3.71,0,1,0,.82-5.17A3.71,3.71,0,0,0,603.85,436.17Zm22.35,23.44a1.85,1.85,0,1,0,.41-2.59A1.85,1.85,0,0,0,626.2,459.61Z" transform="translate(-92.88 -55.35)"/><path class="cls-17" d="M534.9,427.56a.93.93,0,0,1-1.31-.1.93.93,0,0,1,1.4-1.21A.93.93,0,0,1,534.9,427.56Zm17.68-5.5a1.85,1.85,0,1,0-.19,2.62A1.86,1.86,0,0,0,552.58,422.06Zm-14.39,17.33a3.7,3.7,0,1,0-.38,5.23A3.71,3.71,0,0,0,538.19,439.39Zm-24.25-21.45a1.85,1.85,0,1,0-.19,2.61A1.84,1.84,0,0,0,513.94,417.94Z" transform="translate(-92.88 -55.35)"/></g><path class="cls-12" d="M727.13,526.79s-3.78,3.84-5.39,4.56-7,.93-7,.93,3.84,3.77,4.56,5.39.92,7,.92,7,3.78-3.84,5.39-4.55,7-.93,7-.93-3.84-3.78-4.56-5.39S727.13,526.79,727.13,526.79Z" transform="translate(-92.88 -55.35)"/><path class="cls-12" d="M586.15,491.7s2.38-4,2.62-5.54-.78-6.07-.78-6.07,4,2.38,5.54,2.62,6.08-.78,6.08-.78-2.39,4-2.63,5.54.78,6.07.78,6.07-4-2.38-5.53-2.62S586.15,491.7,586.15,491.7Z" transform="translate(-92.88 -55.35)"/><g class="cls-6"><path class="cls-18" d="M179.37,554.25a3.66,3.66,0,0,1,.76-3.85,9.2,9.2,0,0,1-2,.19,9.34,9.34,0,0,1-1.82-.94,9.2,9.2,0,0,1,.19,2,9.5,9.5,0,0,1-.94,1.81,9.35,9.35,0,0,1,2-.18A9.5,9.5,0,0,1,179.37,554.25Z" transform="translate(-92.88 -55.35)"/><path class="cls-19" d="M136.24,432.32a9.2,9.2,0,0,1-.19-2,9.5,9.5,0,0,1,.94-1.81,9.87,9.87,0,0,1-2,.19,9.5,9.5,0,0,1-1.81-.94,9.35,9.35,0,0,1,.18,2,9,9,0,0,1-.94,1.81,10,10,0,0,1,2-.19A9.5,9.5,0,0,1,136.24,432.32Z" transform="translate(-92.88 -55.35)"/><path class="cls-20" d="M145.48,475.68a.92.92,0,0,1-.25,1.28.93.93,0,1,1-1-1.54A.92.92,0,0,1,145.48,475.68Zm-3.31-18.22a1.85,1.85,0,0,0,2.07,3.07,1.85,1.85,0,0,0-2.07-3.07Zm15.46,16.38a3.7,3.7,0,1,0,5.14,1A3.7,3.7,0,0,0,157.63,473.84Zm-24.24,21.47a1.85,1.85,0,1,0,2.57.51A1.85,1.85,0,0,0,133.39,495.31Z" transform="translate(-92.88 -55.35)"/><path class="cls-21" d="M168.76,405.25a.92.92,0,1,1,1.3.14A.92.92,0,0,1,168.76,405.25Zm4.84,17.87a1.85,1.85,0,1,0-2.6-.28A1.85,1.85,0,0,0,173.6,423.12Zm-16.79-15a3.7,3.7,0,1,0-5.2-.57A3.7,3.7,0,0,0,156.81,408.11Zm22.33-23.45a1.85,1.85,0,1,0-2.6-.29A1.86,1.86,0,0,0,179.14,384.66Z" transform="translate(-92.88 -55.35)"/></g><path class="cls-12" d="M102.78,454.11s3.94,2.53,5.44,2.83,6.1-.56,6.1-.56-2.53,3.94-2.82,5.44.55,6.1.55,6.1-3.93-2.53-5.44-2.82-6.1.55-6.1.55,2.53-3.93,2.83-5.43S102.78,454.11,102.78,454.11Z" transform="translate(-92.88 -55.35)"/><g class="cls-6"><path class="cls-22" d="M359.67,164.92a9.09,9.09,0,0,0-1.6,1.27,9.07,9.07,0,0,0-.67,1.93,9.41,9.41,0,0,0-1.26-1.6,9.26,9.26,0,0,0-1.93-.67,9.83,9.83,0,0,0,1.6-1.26,9.71,9.71,0,0,0,.66-1.93,9.47,9.47,0,0,0,1.27,1.6A9.71,9.71,0,0,0,359.67,164.92Z" transform="translate(-92.88 -55.35)"/><path class="cls-23" d="M390.66,75.39a9.41,9.41,0,0,0-1.6,1.26,9.26,9.26,0,0,0-.67,1.93,9.83,9.83,0,0,0-1.26-1.6,9.71,9.71,0,0,0-1.93-.66,9.47,9.47,0,0,0,1.6-1.27,9.51,9.51,0,0,0,.66-1.93,9.09,9.09,0,0,0,1.27,1.6A9.07,9.07,0,0,0,390.66,75.39Z" transform="translate(-92.88 -55.35)"/><path class="cls-24" d="M272.59,128.16a9.09,9.09,0,0,0-1.6,1.27,9.07,9.07,0,0,0-.67,1.93,9.41,9.41,0,0,0-1.26-1.6,9.26,9.26,0,0,0-1.93-.67,9.83,9.83,0,0,0,1.6-1.26,9.71,9.71,0,0,0,.66-1.93,9.47,9.47,0,0,0,1.27,1.6A9.51,9.51,0,0,0,272.59,128.16Z" transform="translate(-92.88 -55.35)"/><path class="cls-25" d="M309.3,104.23a.92.92,0,0,1,.76-1.07.92.92,0,1,1-.76,1.07ZM297,116.66a1.85,1.85,0,1,0-.62-3.65,1.83,1.83,0,0,0-1.51,2.13A1.85,1.85,0,0,0,297,116.66Zm24.67,1.42a3.7,3.7,0,1,0-4.28-3A3.71,3.71,0,0,0,321.69,118.08Z" transform="translate(-92.88 -55.35)"/><path class="cls-26" d="M276.38,171.23a.92.92,0,1,1-1-.84A.91.91,0,0,1,276.38,171.23Zm13.29-11.34a1.85,1.85,0,1,0,2,1.69A1.85,1.85,0,0,0,289.67,159.89Zm-24.45-3.51a3.7,3.7,0,1,0,4,3.38A3.71,3.71,0,0,0,265.22,156.38Zm.4,34a1.85,1.85,0,1,0,2,1.69A1.86,1.86,0,0,0,265.62,190.41Z" transform="translate(-92.88 -55.35)"/></g><path class="cls-12" d="M265.32,88.9s4.54,1.11,5.79,2,3.81,4.8,3.81,4.8,1.1-4.54,2-5.79,4.8-3.81,4.8-3.81-4.54-1.1-5.79-2-3.8-4.8-3.8-4.8-1.11,4.54-2,5.79S265.32,88.9,265.32,88.9Z" transform="translate(-92.88 -55.35)"/><g class="cls-6"><path class="cls-27" d="M357.87,448a9.79,9.79,0,0,0,2,.24,9.62,9.62,0,0,0,1.83-.9,3.68,3.68,0,0,0,.66,3.87,3.62,3.62,0,0,0-3.86.65,9.27,9.27,0,0,0,.23-2A9.14,9.14,0,0,0,357.87,448Z" transform="translate(-92.88 -55.35)"/><path class="cls-28" d="M272.58,489.21a9.05,9.05,0,0,0,2,.24,9.14,9.14,0,0,0,1.83-.89,9.67,9.67,0,0,0-.24,2,9.47,9.47,0,0,0,.9,1.84,9.79,9.79,0,0,0-2-.24,9.89,9.89,0,0,0-1.84.89,3.63,3.63,0,0,0-.65-3.86Z" transform="translate(-92.88 -55.35)"/><path class="cls-29" d="M393.31,535.58a3.62,3.62,0,0,0,3.86-.65,3.62,3.62,0,0,0,.65,3.86,9.67,9.67,0,0,0-2-.24,9.47,9.47,0,0,0-1.84.9,9.14,9.14,0,0,0,.24-2A9.28,9.28,0,0,0,393.31,535.58Z" transform="translate(-92.88 -55.35)"/><path class="cls-30" d="M350.44,526.48a.93.93,0,1,1-.22-1.29A.92.92,0,0,1,350.44,526.48Zm17.47-.08a1.85,1.85,0,0,0-2.15,3,1.85,1.85,0,1,0,2.15-3Zm-16.4-18.47a3.7,3.7,0,1,0,.87,5.16A3.71,3.71,0,0,0,351.51,507.93Z" transform="translate(-92.88 -55.35)"/><path class="cls-31" d="M421.14,502.49a.92.92,0,0,1,1.3-.11.93.93,0,1,1-1.3.11Zm-17.42-1.4a1.86,1.86,0,1,0-.21-2.61A1.85,1.85,0,0,0,403.72,501.09Zm14.78,19.79a3.7,3.7,0,1,0-.43-5.22A3.71,3.71,0,0,0,418.5,520.88Zm23.82-24.3a1.86,1.86,0,1,0-.21-2.61A1.85,1.85,0,0,0,442.32,496.58Z" transform="translate(-92.88 -55.35)"/></g><path class="cls-12" d="M370.63,568.44s-2.42-4-2.67-5.51.71-6.08.71-6.08-4,2.42-5.51,2.68-6.08-.72-6.08-.72,2.42,4,2.68,5.51-.72,6.09-.72,6.09,4-2.43,5.51-2.68S370.63,568.44,370.63,568.44Z" transform="translate(-92.88 -55.35)"/><g class="cls-6"><path class="cls-32" d="M367.77,1002.24a9.47,9.47,0,0,0-1.6,1.27,9.71,9.71,0,0,0-.66,1.93,9.09,9.09,0,0,0-1.27-1.6,8.91,8.91,0,0,0-1.93-.66,9.09,9.09,0,0,0,1.6-1.27,9.26,9.26,0,0,0,.67-1.93,9.83,9.83,0,0,0,1.26,1.6A9.71,9.71,0,0,0,367.77,1002.24Z" transform="translate(-92.88 -55.35)"/><path class="cls-33" d="M363.38,934.52a3.66,3.66,0,0,0-2.27,3.2,9.41,9.41,0,0,0-1.26-1.6,9.26,9.26,0,0,0-1.93-.67,9.83,9.83,0,0,0,1.6-1.26,9.71,9.71,0,0,0,.66-1.93,3.63,3.63,0,0,0,3.2,2.26Z" transform="translate(-92.88 -55.35)"/><path class="cls-34" d="M323.56,986.36a9.83,9.83,0,0,0-1.6,1.26,9.71,9.71,0,0,0-.66,1.93A9.47,9.47,0,0,0,320,988a9.71,9.71,0,0,0-1.93-.66,9.09,9.09,0,0,0,1.6-1.27,8.91,8.91,0,0,0,.66-1.93,9.09,9.09,0,0,0,1.27,1.6A9.26,9.26,0,0,0,323.56,986.36Z" transform="translate(-92.88 -55.35)"/><path class="cls-35" d="M360.27,962.42a.93.93,0,1,1,1.07.76A.93.93,0,0,1,360.27,962.42ZM348,974.85a1.85,1.85,0,1,0-2.14-1.51A1.85,1.85,0,0,0,348,974.85Zm24.66,1.42a3.7,3.7,0,1,0-4.28-3A3.71,3.71,0,0,0,372.66,976.27Z" transform="translate(-92.88 -55.35)"/><path class="cls-36" d="M327.36,1029.43a.93.93,0,0,1-1.85.16.93.93,0,1,1,1.85-.16Zm13.28-11.34a1.85,1.85,0,1,0,2,1.69A1.85,1.85,0,0,0,340.64,1018.09Zm-24.45-3.51a3.7,3.7,0,1,0,4,3.38A3.7,3.7,0,0,0,316.19,1014.58Zm.4,34a1.85,1.85,0,1,0,2,1.69A1.86,1.86,0,0,0,316.59,1048.61Z" transform="translate(-92.88 -55.35)"/></g><path class="cls-12" d="M316.29,947.1s4.55,1.11,5.8,2,3.8,4.81,3.8,4.81,1.11-4.55,2-5.8,4.8-3.8,4.8-3.8-4.54-1.11-5.79-2-3.8-4.8-3.8-4.8-1.11,4.54-2,5.79S316.29,947.1,316.29,947.1Z" transform="translate(-92.88 -55.35)"/><path class="cls-12" d="M606.34,1034.87s4.54,1.11,5.79,2,3.81,4.81,3.81,4.81,1.1-4.55,2-5.8,4.8-3.8,4.8-3.8-4.54-1.11-5.79-2-3.8-4.8-3.8-4.8-1.11,4.54-2,5.79S606.34,1034.87,606.34,1034.87Z" transform="translate(-92.88 -55.35)"/><g class="cls-6"><path class="cls-37" d="M601.8,960.07a9.47,9.47,0,0,0-1.6,1.27,9.71,9.71,0,0,0-.66,1.93,9.09,9.09,0,0,0-1.27-1.6,8.91,8.91,0,0,0-1.93-.66,9.6,9.6,0,0,0,1.6-1.27,9.26,9.26,0,0,0,.67-1.93,9.83,9.83,0,0,0,1.26,1.6A9.71,9.71,0,0,0,601.8,960.07Z" transform="translate(-92.88 -55.35)"/><path class="cls-38" d="M597.41,892.35a3.66,3.66,0,0,0-2.27,3.2,9.41,9.41,0,0,0-1.26-1.6,9.26,9.26,0,0,0-1.93-.67,9.83,9.83,0,0,0,1.6-1.26,9.71,9.71,0,0,0,.66-1.93,3.63,3.63,0,0,0,3.2,2.26Z" transform="translate(-92.88 -55.35)"/><path class="cls-39" d="M557.59,944.19a9.83,9.83,0,0,0-1.6,1.26,9.71,9.71,0,0,0-.66,1.93,9.47,9.47,0,0,0-1.27-1.6,9.71,9.71,0,0,0-1.93-.66,9.09,9.09,0,0,0,1.6-1.27,9.51,9.51,0,0,0,.66-1.93,9.09,9.09,0,0,0,1.27,1.6A9.26,9.26,0,0,0,557.59,944.19Z" transform="translate(-92.88 -55.35)"/><path class="cls-40" d="M594.3,920.25a.93.93,0,1,1,1.07.76A.94.94,0,0,1,594.3,920.25ZM582,932.68a1.85,1.85,0,1,0-2.14-1.51A1.86,1.86,0,0,0,582,932.68Zm24.66,1.42a3.7,3.7,0,1,0-4.28-3A3.7,3.7,0,0,0,606.69,934.1Z" transform="translate(-92.88 -55.35)"/><path class="cls-41" d="M561.39,987.26a.93.93,0,0,1-1.85.15.93.93,0,1,1,1.85-.15Zm13.28-11.34a1.85,1.85,0,1,0,2,1.68A1.85,1.85,0,0,0,574.67,975.92Zm-24.45-3.51a3.7,3.7,0,1,0,4,3.38A3.7,3.7,0,0,0,550.22,972.41Zm.4,34a1.85,1.85,0,1,0,2,1.69A1.85,1.85,0,0,0,550.62,1006.44Z" transform="translate(-92.88 -55.35)"/></g><g class="cls-6"><path class="cls-42" d="M706.39,947.47a9.41,9.41,0,0,0-.38,2,9.59,9.59,0,0,0,.76,1.89,3.62,3.62,0,0,0-3.89.38,3.62,3.62,0,0,0-.39-3.9,3.64,3.64,0,0,0,3.9-.38Z" transform="translate(-92.88 -55.35)"/><path class="cls-43" d="M678.64,894.58a3.64,3.64,0,0,0,.38,3.9,3.62,3.62,0,0,0-3.89.38,3.62,3.62,0,0,0-.39-3.9,9.94,9.94,0,0,0,2,.39A9.22,9.22,0,0,0,678.64,894.58Z" transform="translate(-92.88 -55.35)"/><path class="cls-44" d="M682.47,959.84a3.62,3.62,0,0,0,.38,3.89,3.62,3.62,0,0,0-3.89.38,3.6,3.6,0,0,0-.39-3.89,3.64,3.64,0,0,0,3.9-.38Z" transform="translate(-92.88 -55.35)"/><path class="cls-45" d="M694.56,917.71a.92.92,0,1,1,1.17-1.43.92.92,0,0,1-1.17,1.43Zm-1.15,17.43a1.85,1.85,0,1,0-2.6.26A1.84,1.84,0,0,0,693.41,935.14ZM713,920.07a3.7,3.7,0,1,0-5.21.51A3.7,3.7,0,0,0,713,920.07Z" transform="translate(-92.88 -55.35)"/><path class="cls-46" d="M666.1,1062.22a.93.93,0,0,1,0,1.31.91.91,0,0,1-1.3,0,.93.93,0,1,1,1.29-1.33Zm2.62-17.27a1.85,1.85,0,1,0,2.62,0A1.85,1.85,0,0,0,668.72,1045Zm26.65-59a3.71,3.71,0,1,0,5.24-.06A3.72,3.72,0,0,0,695.37,986Zm-24.85,97.78a1.85,1.85,0,1,0,2.61,0A1.85,1.85,0,0,0,670.52,1083.77Z" transform="translate(-92.88 -55.35)"/></g><path class="cls-12" d="M550.32,904.93s4.55,1.11,5.8,2,3.8,4.81,3.8,4.81,1.11-4.55,2-5.8,4.8-3.8,4.8-3.8-4.54-1.11-5.79-2-3.8-4.8-3.8-4.8-1.11,4.54-2,5.79S550.32,904.93,550.32,904.93Z" transform="translate(-92.88 -55.35)"/><g class="cls-6"><path class="cls-47" d="M506.74,176.94a9.3,9.3,0,0,1,2,0,9.48,9.48,0,0,1,1.73,1.09,9.3,9.3,0,0,1,0-2,9.48,9.48,0,0,1,1.09-1.73,9.3,9.3,0,0,1-2,0,9.48,9.48,0,0,1-1.73-1.09,9.3,9.3,0,0,1,0,2A9.48,9.48,0,0,1,506.74,176.94Z" transform="translate(-92.88 -55.35)"/><path class="cls-48" d="M426.47,126.6a3.65,3.65,0,0,1,3.77,1.08,9.3,9.3,0,0,1,0-2,9.48,9.48,0,0,1,1.09-1.73,9.46,9.46,0,0,1-2,0,9,9,0,0,1-1.73-1.08,9.3,9.3,0,0,1,0,2A9.31,9.31,0,0,1,426.47,126.6Z" transform="translate(-92.88 -55.35)"/><path class="cls-49" d="M551.55,93.71a3.65,3.65,0,0,1,3.76,1.07,9.46,9.46,0,0,1,0-2A9.31,9.31,0,0,1,556.39,91a9.54,9.54,0,0,1-2,0,9.31,9.31,0,0,1-1.72-1.09,9.54,9.54,0,0,1,0,2A9.39,9.39,0,0,1,551.55,93.71Z" transform="translate(-92.88 -55.35)"/><path class="cls-50" d="M507.58,99.34a.94.94,0,0,1-1.26-.36.93.93,0,1,1,1.26.36ZM526,97.55a1.85,1.85,0,1,0-.72,2.51A1.85,1.85,0,0,0,526,97.55Zm-17.61,14a3.7,3.7,0,1,0-1.43,5A3.7,3.7,0,0,0,508.4,111.59ZM489,85.66a1.85,1.85,0,1,0-.72,2.52A1.85,1.85,0,0,0,489,85.66Z" transform="translate(-92.88 -55.35)"/><path class="cls-51" d="M575.84,128.37a.92.92,0,1,1-.25,1.28A.91.91,0,0,1,575.84,128.37Zm-18.22,3.34a1.85,1.85,0,1,0,.5-2.57A1.85,1.85,0,0,0,557.62,131.71ZM574,116.22a3.7,3.7,0,1,0,1-5.14A3.7,3.7,0,0,0,574,116.22Zm21.52,24.2a1.85,1.85,0,1,0,.5-2.57A1.85,1.85,0,0,0,595.5,140.42Z" transform="translate(-92.88 -55.35)"/></g><path class="cls-12" d="M532.6,58.57s-2.85,3.71-3.26,5.18,0,6.13,0,6.13-3.71-2.85-5.18-3.27-6.13,0-6.13,0,2.85-3.71,3.27-5.18-.05-6.13-.05-6.13,3.71,2.85,5.18,3.27S532.6,58.57,532.6,58.57Z" transform="translate(-92.88 -55.35)"/><g class="cls-6"><path class="cls-52" d="M195.35,357.41a9.38,9.38,0,0,1,2-.26,9.34,9.34,0,0,1,1.85.87,9.38,9.38,0,0,1-.26-2,9.48,9.48,0,0,1,.87-1.84,9.52,9.52,0,0,1-2,.25,9.48,9.48,0,0,1-1.84-.87,9.52,9.52,0,0,1,.25,2A9.34,9.34,0,0,1,195.35,357.41Z" transform="translate(-92.88 -55.35)"/><path class="cls-52" d="M315.61,309.84a9.38,9.38,0,0,1,2-.26,9.34,9.34,0,0,1,1.85.87,9.38,9.38,0,0,1-.26-2,9.34,9.34,0,0,1,.87-1.85,9.38,9.38,0,0,1-2,.26,9.48,9.48,0,0,1-1.84-.87,9.52,9.52,0,0,1,.25,2A9.64,9.64,0,0,1,315.61,309.84Z" transform="translate(-92.88 -55.35)"/><path class="cls-53" d="M272.63,320.66a.92.92,0,0,1-1.29-.2.94.94,0,0,1,.2-1.3.93.93,0,0,1,1.09,1.5Zm18.08-4a1.85,1.85,0,1,0-.41,2.58A1.84,1.84,0,0,0,290.71,316.69Zm-15.8,16a3.71,3.71,0,1,0-.83,5.18A3.71,3.71,0,0,0,274.91,332.73ZM252.56,309.3a1.85,1.85,0,0,0-3,2.17,1.85,1.85,0,0,0,3-2.17Z" transform="translate(-92.88 -55.35)"/><path class="cls-53" d="M343.86,341.34a.93.93,0,0,1,1.31.1.93.93,0,1,1-1.31-.1Zm-17.68,5.5a1.85,1.85,0,1,0,.19-2.61A1.85,1.85,0,0,0,326.18,346.84Zm14.39-17.33a3.7,3.7,0,1,0,.38-5.22A3.69,3.69,0,0,0,340.57,329.51ZM364.82,351a1.85,1.85,0,1,0,.19-2.62A1.86,1.86,0,0,0,364.82,351Z" transform="translate(-92.88 -55.35)"/></g><path class="cls-54" d="M292.61,277.2s-2.38,4-2.62,5.54.77,6.08.77,6.08-4-2.39-5.53-2.63-6.08.78-6.08.78,2.38-4,2.62-5.54-.77-6.07-.77-6.07,4,2.38,5.53,2.62S292.61,277.2,292.61,277.2Z" transform="translate(-92.88 -55.35)"/><g class="cls-6"><path class="cls-52" d="M285.07,443.94a9.38,9.38,0,0,1,2-.26,9.34,9.34,0,0,1,1.85.87,3.64,3.64,0,0,1,.61-3.87,9.38,9.38,0,0,1-2,.26,9.34,9.34,0,0,1-1.85-.87,9.38,9.38,0,0,1,.26,2A9.64,9.64,0,0,1,285.07,443.94Z" transform="translate(-92.88 -55.35)"/><path class="cls-53" d="M242.09,454.76a.93.93,0,1,1-1.09-1.5.93.93,0,0,1,1.09,1.5Zm18.08-4a1.85,1.85,0,1,0-.41,2.58A1.84,1.84,0,0,0,260.17,450.79Zm-15.81,16a3.7,3.7,0,1,0-.82,5.18A3.71,3.71,0,0,0,244.36,466.83Z" transform="translate(-92.88 -55.35)"/><path class="cls-53" d="M313.32,475.44a.92.92,0,0,1,1.3.1.91.91,0,0,1-.09,1.3.92.92,0,0,1-1.31-.09A.93.93,0,0,1,313.32,475.44Z" transform="translate(-92.88 -55.35)"/><path class="cls-53" d="M295.63,480.94a1.85,1.85,0,1,0,.19-2.61A1.86,1.86,0,0,0,295.63,480.94Z" transform="translate(-92.88 -55.35)"/><path class="cls-53" d="M310,463.61a3.7,3.7,0,1,0,.38-5.22A3.71,3.71,0,0,0,310,463.61Z" transform="translate(-92.88 -55.35)"/></g><path class="cls-54" d="M262.07,411.3s-2.39,4-2.63,5.54.78,6.08.78,6.08-4-2.39-5.53-2.63-6.08.78-6.08.78,2.38-4,2.62-5.54-.78-6.07-.78-6.07,4,2.38,5.54,2.62S262.07,411.3,262.07,411.3Z" transform="translate(-92.88 -55.35)"/><g class="cls-6"><path class="cls-55" d="M627.66,813.5a9.38,9.38,0,0,1,2-.26,9.24,9.24,0,0,1,1.85.88,3.64,3.64,0,0,1,.61-3.87,9.38,9.38,0,0,1-2,.26,9.24,9.24,0,0,1-1.85-.88,3.64,3.64,0,0,1-.61,3.87Z" transform="translate(-92.88 -55.35)"/><path class="cls-56" d="M542,773.1a9.38,9.38,0,0,1,2-.26,9.24,9.24,0,0,1,1.85.88,3.64,3.64,0,0,1,.61-3.87,9.38,9.38,0,0,1-2,.26,9.24,9.24,0,0,1-1.85-.88,3.64,3.64,0,0,1-.61,3.87Z" transform="translate(-92.88 -55.35)"/><path class="cls-57" d="M662.22,725.53a3.64,3.64,0,0,1,3.87.61,3.64,3.64,0,0,1,.61-3.87,3.64,3.64,0,0,1-3.87-.61,3.64,3.64,0,0,1-.61,3.87Z" transform="translate(-92.88 -55.35)"/><path class="cls-58" d="M506.51,690.31a.92.92,0,1,1,.2-1.29A.93.93,0,0,1,506.51,690.31Zm18.08-4a1.85,1.85,0,1,0-.41,2.59A1.84,1.84,0,0,0,524.59,686.34Zm-15.8,16a3.71,3.71,0,1,0-.83,5.17A3.7,3.7,0,0,0,508.79,702.39ZM486.44,679a1.85,1.85,0,0,0-3,2.18,1.85,1.85,0,0,0,3-2.18Z" transform="translate(-92.88 -55.35)"/><path class="cls-59" d="M690.47,757a.93.93,0,1,1-.1,1.31A.93.93,0,0,1,690.47,757Zm-17.68,5.5a1.85,1.85,0,1,0,.19-2.61A1.85,1.85,0,0,0,672.79,762.53Zm14.39-17.33a3.7,3.7,0,1,0,.38-5.22A3.69,3.69,0,0,0,687.18,745.2Zm24.25,21.46a1.85,1.85,0,1,0,.19-2.62A1.85,1.85,0,0,0,711.43,766.66Z" transform="translate(-92.88 -55.35)"/></g><path class="cls-12" d="M498.24,657.8s3.78-3.84,5.39-4.56,7-.92,7-.92-3.85-3.78-4.56-5.39-.93-7-.93-7-3.77,3.84-5.39,4.56-7,.92-7,.92,3.84,3.78,4.55,5.39S498.24,657.8,498.24,657.8Z" transform="translate(-92.88 -55.35)"/><path class="cls-12" d="M639.22,692.89s-2.38,4-2.63,5.54.78,6.08.78,6.08-4-2.39-5.53-2.63-6.08.78-6.08.78,2.38-4,2.62-5.54-.77-6.07-.77-6.07,4,2.38,5.53,2.62S639.22,692.89,639.22,692.89Z" transform="translate(-92.88 -55.35)"/><path class="cls-3" d="M126,62.81s8.43,4.42,11.53,4.75,12.27-2.23,12.27-2.23-4.42,8.43-4.75,11.53,2.23,12.27,2.23,12.27-8.43-4.42-11.53-4.75-12.27,2.23-12.27,2.23,4.42-8.43,4.75-11.53S126,62.81,126,62.81Z" transform="translate(-92.88 -55.35)"/><path class="cls-3" d="M131,715.5s-2.84-9.08-4.79-11.51-10.25-7.1-10.25-7.1,9.08-2.83,11.5-4.79,7.1-10.25,7.1-10.25,2.84,9.08,4.8,11.51,10.25,7.1,10.25,7.1-9.08,2.83-11.51,4.79S131,715.5,131,715.5Z" transform="translate(-92.88 -55.35)"/><path class="cls-3" d="M345.8,759.13s3.67,1.92,5,2.07,5.34-1,5.34-1-1.92,3.67-2.07,5,1,5.34,1,5.34-3.67-1.93-5-2.07-5.34,1-5.34,1,1.93-3.67,2.07-5S345.8,759.13,345.8,759.13Z" transform="translate(-92.88 -55.35)"/><path class="cls-3" d="M675.85,462.08s3.67,1.92,5,2.06,5.34-1,5.34-1-1.92,3.67-2.06,5,1,5.34,1,5.34-3.67-1.92-5-2.06-5.34,1-5.34,1,1.92-3.66,2.06-5S675.85,462.08,675.85,462.08Z" transform="translate(-92.88 -55.35)"/></g></g></svg>